SplineFontDB: 3.2
FontName: Monocat_7x14
FullName: Monocat 7x14
FamilyName: Monocat 7x14
Weight: Normal
Copyright: Licensce: CC-BY-SA 4.0, by HolyBlackCat, 2021.\nYou can find the latest version at https://github.com/HolyBlackCat/monocat-fonts
Version: 1.0
ItalicAngle: 0
UnderlinePosition: -8
UnderlineWidth: 5
Ascent: 60
Descent: 24
InvalidEm: 0
LayerCount: 2
Layer: 0 0 "Back" 1
Layer: 1 0 "Fore" 1
XUID: [1021 484 20967 16211]
FSType: 8
OS2Version: 0
OS2_WeightWidthSlopeOnly: 0
OS2_UseTypoMetrics: 1
CreationTime: 1445609187
ModificationTime: 1645391709
PfmFamily: 49
TTFWeight: 400
TTFWidth: 5
LineGap: 0
VLineGap: 0
OS2TypoAscent: 0
OS2TypoAOffset: 1
OS2TypoDescent: 0
OS2TypoDOffset: 1
OS2TypoLinegap: 0
OS2WinAscent: 0
OS2WinAOffset: 1
OS2WinDescent: 0
OS2WinDOffset: 1
HheadAscent: 0
HheadAOffset: 1
HheadDescent: 0
HheadDOffset: 1
OS2Vendor: 'PfEd'
MarkAttachClasses: 1
DEI: 91125
LangName: 1033
Encoding: windows-1251
UnicodeInterp: none
NameList: Adobe Glyph List
DisplaySize: -36
AntiAlias: 1
FitToEm: 1
WinInfo: 0 51 17
BeginPrivate: 0
EndPrivate
TeXData: 1 0 0 524288 262144 174763 436907 1048576 174763 783286 444596 497025 792723 393216 433062 380633 303038 157286 324010 404750 52429 2506097 1059062 262144
BeginChars: 257 235

StartChar: uni0001
Encoding: 1 1 0
Width: 42
VWidth: 0
Flags: HMW
LayerCount: 2
Back
Fore
SplineSet
18 18 m 25
 18 6 l 25
 24 6 l 25
 24 18 l 25
 30 18 l 25
 30 -12 l 25
 24 -12 l 1
 24 0 l 29
 18 0 l 1
 18 -12 l 25
 12 -12 l 25
 12 18 l 25
 18 18 l 25
30 48 m 25
 30 30 l 25
 36 30 l 25
 36 48 l 25
 30 48 l 25
24 54 m 25
 42 54 l 25
 42 24 l 25
 24 24 l 25
 24 54 l 25
18 54 m 25
 18 48 l 25
 6 48 l 25
 6 42 l 25
 18 42 l 25
 18 24 l 25
 0 24 l 25
 0 30 l 25
 12 30 l 25
 12 36 l 25
 0 36 l 25
 0 54 l 25
 18 54 l 25
EndSplineSet
Validated: 1
EndChar

StartChar: uni0002
Encoding: 2 2 1
Width: 42
VWidth: 0
Flags: HMW
LayerCount: 2
Back
Fore
SplineSet
18 18 m 29
 18 6 l 25
 24 6 l 25
 24 18 l 25
 30 18 l 25
 30 6 l 25
 24 6 l 25
 24 0 l 25
 30 0 l 25
 30 -12 l 25
 24 -12 l 25
 24 0 l 25
 18 0 l 25
 18 -12 l 25
 12 -12 l 25
 12 0 l 25
 18 0 l 25
 18 6 l 25
 12 6 l 25
 12 18 l 25
 18 18 l 29
24 54 m 25
 42 54 l 25
 42 48 l 25
 36 48 l 25
 36 24 l 25
 30 24 l 25
 30 48 l 25
 24 48 l 25
 24 54 l 25
0 54 m 25
 18 54 l 25
 18 48 l 25
 6 48 l 25
 6 42 l 25
 18 42 l 25
 18 24 l 25
 0 24 l 25
 0 30 l 25
 12 30 l 25
 12 36 l 25
 0 36 l 25
 0 54 l 25
EndSplineSet
Validated: 5
EndChar

StartChar: uni0003
Encoding: 3 3 2
Width: 42
VWidth: 0
Flags: HMW
LayerCount: 2
Back
Fore
SplineSet
12 18 m 1
 18 18 l 25
 18 6 l 1
 24 6 l 25
 24 18 l 25
 30 18 l 1
 30 6 l 25
 24 6 l 1
 24 0 l 25
 30 0 l 25
 30 -12 l 25
 24 -12 l 25
 24 0 l 25
 18 0 l 25
 18 -12 l 25
 12 -12 l 25
 12 0 l 25
 18 0 l 25
 18 6 l 25
 12 6 l 25
 12 18 l 1
24 54 m 25
 42 54 l 25
 42 48 l 25
 36 48 l 25
 36 24 l 1
 30 24 l 25
 30 48 l 1
 24 48 l 25
 24 54 l 25
0 54 m 25
 18 54 l 25
 18 48 l 25
 6 48 l 25
 6 42 l 25
 18 42 l 25
 18 36 l 25
 6 36 l 25
 6 30 l 25
 18 30 l 25
 18 24 l 25
 0 24 l 25
 0 54 l 25
EndSplineSet
Validated: 5
EndChar

StartChar: uni0004
Encoding: 4 4 3
Width: 42
VWidth: 0
Flags: HMW
LayerCount: 2
Back
Fore
SplineSet
30 30 m 29
 36 30 l 25
 36 48 l 25
 30 48 l 25
 30 30 l 29
30 18 m 25
 30 12 l 25
 24 12 l 25
 24 -12 l 25
 18 -12 l 25
 18 12 l 25
 12 12 l 25
 12 18 l 25
 30 18 l 25
24 54 m 25
 42 54 l 25
 42 24 l 25
 24 24 l 25
 24 54 l 25
0 54 m 25
 18 54 l 25
 18 48 l 25
 6 48 l 25
 6 42 l 25
 18 42 l 25
 18 36 l 25
 6 36 l 25
 6 30 l 25
 18 30 l 25
 18 24 l 25
 0 24 l 25
 0 54 l 25
EndSplineSet
Validated: 1
EndChar

StartChar: uni0005
Encoding: 5 5 4
Width: 42
VWidth: 0
Flags: HMW
LayerCount: 2
Back
Fore
SplineSet
18 12 m 25
 18 -6 l 1
 24 -6 l 25
 24 12 l 1
 18 12 l 25
12 18 m 25
 30 18 l 25
 30 -6 l 25
 24 -6 l 25
 24 -12 l 25
 30 -12 l 25
 30 -18 l 25
 24 -18 l 25
 24 -12 l 25
 12 -12 l 25
 12 18 l 25
24 54 m 1
 36 54 l 25
 36 48 l 25
 42 48 l 25
 42 24 l 25
 36 24 l 25
 36 48 l 25
 30 48 l 25
 30 24 l 1
 24 24 l 25
 24 54 l 1
0 24 m 25
 0 54 l 1
 18 54 l 25
 18 48 l 25
 6 48 l 25
 6 42 l 25
 18 42 l 25
 18 36 l 25
 6 36 l 25
 6 30 l 25
 18 30 l 25
 18 24 l 1
 0 24 l 25
EndSplineSet
Validated: 5
EndChar

StartChar: uni0006
Encoding: 6 6 5
Width: 42
VWidth: 0
Flags: HMW
LayerCount: 2
Back
Fore
SplineSet
12 18 m 29
 18 18 l 25
 18 6 l 25
 24 6 l 25
 24 18 l 25
 30 18 l 25
 30 6 l 25
 24 6 l 25
 24 0 l 25
 30 0 l 25
 30 -12 l 25
 24 -12 l 25
 24 0 l 25
 18 0 l 25
 18 -12 l 25
 12 -12 l 25
 12 18 l 29
24 54 m 25
 42 54 l 25
 42 48 l 25
 30 48 l 25
 30 30 l 25
 42 30 l 25
 42 24 l 25
 24 24 l 25
 24 54 l 25
6 48 m 25
 6 42 l 25
 12 42 l 25
 12 48 l 25
 6 48 l 25
0 54 m 25
 18 54 l 25
 18 24 l 25
 12 24 l 25
 12 36 l 25
 6 36 l 25
 6 24 l 25
 0 24 l 25
 0 54 l 25
EndSplineSet
Validated: 5
EndChar

StartChar: uni0007
Encoding: 7 7 6
Width: 42
VWidth: 0
Flags: HMW
LayerCount: 2
Back
Fore
SplineSet
0 10 m 29
 8 18 l 25
 18 18 l 25
 18 53 l 25
 19 54 l 25
 35 54 l 25
 36 53 l 25
 36 49 l 25
 35 48 l 25
 24 48 l 25
 24 42 l 25
 35 42 l 25
 36 41 l 25
 36 37 l 25
 35 36 l 25
 24 36 l 25
 24 2 l 25
 16 -6 l 25
 8 -6 l 25
 0 2 l 25
 0 10 l 29
EndSplineSet
Validated: 1
EndChar

StartChar: uni0008
Encoding: 8 8 7
Width: 42
VWidth: 0
Flags: HMW
LayerCount: 2
Back
Fore
SplineSet
18 21 m 29
 24 15 l 25
 18 9 l 25
 18 6 l 25
 21 6 l 25
 27 12 l 25
 33 6 l 25
 36 6 l 25
 36 9 l 25
 30 15 l 25
 36 21 l 25
 36 24 l 25
 33 24 l 25
 27 18 l 25
 21 24 l 25
 18 24 l 25
 18 21 l 29
15 30 m 25
 39 30 l 25
 42 27 l 25
 42 3 l 25
 39 0 l 25
 15 0 l 25
 0 15 l 25
 15 30 l 25
EndSplineSet
Validated: 1
EndChar

StartChar: uni0009
Encoding: 9 9 8
Width: 42
VWidth: 0
Flags: HMW
LayerCount: 2
Back
Fore
SplineSet
15 36 m 25
 30 21 l 25
 15 6 l 25
 12 9 l 25
 22 19 l 25
 7 19 l 25
 7 23 l 25
 22 23 l 25
 12 33 l 25
 15 36 l 25
36 47 m 25
 36 -5 l 25
 35 -6 l 25
 31 -6 l 25
 30 -5 l 25
 30 47 l 25
 31 48 l 25
 35 48 l 25
 36 47 l 25
6 47 m 25
 6 -5 l 25
 5 -6 l 25
 1 -6 l 25
 0 -5 l 25
 0 47 l 25
 1 48 l 25
 5 48 l 25
 6 47 l 25
EndSplineSet
Validated: 5
EndChar

StartChar: uni000A
Encoding: 10 10 9
Width: 42
VWidth: 0
Flags: HMW
LayerCount: 2
Back
Fore
SplineSet
19 41 m 21
 23 41 l 1
 23 -4 l 25
 33 6 l 9
 36 3 l 25
 21 -12 l 25
 6 3 l 25
 9 6 l 25
 19 -4 l 25
 19 41 l 21
29 24 m 25
 41 24 l 25
 42 23 l 25
 42 19 l 25
 41 18 l 25
 29 18 l 25
 28 19 l 25
 28 23 l 25
 29 24 l 25
1 24 m 25
 13 24 l 25
 14 23 l 25
 14 19 l 25
 13 18 l 25
 1 18 l 25
 0 19 l 25
 0 23 l 25
 1 24 l 25
0 -13 m 25
 1 -12 l 1
 41 -12 l 25
 42 -13 l 25
 42 -17 l 25
 41 -18 l 25
 1 -18 l 25
 0 -17 l 1
 0 -13 l 25
0 53 m 25
 1 54 l 1
 41 54 l 25
 42 53 l 25
 42 49 l 25
 41 48 l 25
 1 48 l 25
 0 49 l 1
 0 53 l 25
EndSplineSet
Validated: 5
EndChar

StartChar: uni000B
Encoding: 11 11 10
Width: 42
VWidth: 0
Flags: HMW
LayerCount: 2
Back
Fore
SplineSet
19 35 m 29
 23 35 l 25
 23 8 l 25
 33 18 l 25
 36 15 l 25
 21 0 l 25
 6 15 l 25
 9 18 l 25
 19 8 l 25
 19 35 l 29
1 0 m 25
 41 0 l 25
 42 -1 l 25
 42 -5 l 25
 41 -6 l 25
 1 -6 l 25
 0 -5 l 25
 0 -1 l 25
 1 0 l 25
1 42 m 25
 41 42 l 25
 42 41 l 25
 42 37 l 25
 41 36 l 25
 1 36 l 25
 0 37 l 25
 0 41 l 25
 1 42 l 25
EndSplineSet
Validated: 5
EndChar

StartChar: uni000C
Encoding: 12 12 11
Width: 42
VWidth: 0
Flags: HMW
LayerCount: 2
Back
Fore
SplineSet
24 36 m 25
 42 36 l 25
 42 30 l 25
 30 30 l 25
 30 24 l 25
 42 24 l 25
 42 18 l 25
 30 18 l 25
 30 6 l 25
 24 6 l 25
 24 36 l 25
0 36 m 25
 18 36 l 25
 18 30 l 25
 6 30 l 25
 6 24 l 25
 18 24 l 25
 18 18 l 25
 6 18 l 25
 6 6 l 25
 0 6 l 25
 0 36 l 25
EndSplineSet
Validated: 1
EndChar

StartChar: uni000D
Encoding: 13 13 12
Width: 42
VWidth: 0
Flags: HMW
LayerCount: 2
Back
Fore
SplineSet
6 21 m 29
 21 36 l 25
 24 33 l 25
 14 23 l 25
 35 23 l 25
 35 19 l 25
 14 19 l 25
 24 9 l 25
 21 6 l 25
 6 21 l 29
1 48 m 25
 5 48 l 25
 6 47 l 25
 6 -5 l 25
 5 -6 l 25
 1 -6 l 25
 0 -5 l 25
 0 47 l 25
 1 48 l 25
EndSplineSet
Validated: 5
EndChar

StartChar: uni000E
Encoding: 14 14 13
Width: 42
VWidth: 0
Flags: HMW
LayerCount: 2
Back
Fore
SplineSet
30 30 m 29
 30 12 l 25
 36 12 l 25
 36 30 l 25
 30 30 l 29
24 36 m 25
 42 36 l 25
 42 6 l 25
 24 6 l 25
 24 36 l 25
0 36 m 25
 18 36 l 25
 18 30 l 25
 6 30 l 25
 6 24 l 25
 18 24 l 25
 18 6 l 25
 0 6 l 25
 0 12 l 25
 12 12 l 25
 12 18 l 25
 0 18 l 25
 0 36 l 25
EndSplineSet
Validated: 1
EndChar

StartChar: uni000F
Encoding: 15 15 14
Width: 42
VWidth: 0
Flags: HMW
LayerCount: 2
Back
Fore
SplineSet
24 36 m 29
 42 36 l 25
 42 30 l 25
 36 30 l 25
 36 12 l 25
 42 12 l 25
 41 6 l 25
 24 6 l 25
 24 12 l 25
 30 12 l 25
 30 30 l 25
 24 30 l 25
 24 36 l 29
0 36 m 25
 18 36 l 25
 18 30 l 25
 6 30 l 25
 6 24 l 25
 18 24 l 25
 18 6 l 25
 0 6 l 25
 0 12 l 25
 12 12 l 25
 12 18 l 25
 0 18 l 25
 0 36 l 25
EndSplineSet
Validated: 1
EndChar

StartChar: uni0010
Encoding: 16 16 15
Width: 42
VWidth: 0
Flags: HMW
LayerCount: 2
Back
Fore
SplineSet
12 18 m 25
 30 18 l 1
 30 12 l 25
 18 12 l 1
 18 6 l 25
 30 6 l 25
 30 0 l 25
 18 0 l 25
 18 -6 l 25
 30 -6 l 25
 30 -12 l 25
 12 -12 l 1
 12 18 l 25
24 54 m 25
 30 54 l 25
 30 30 l 25
 42 30 l 25
 42 24 l 25
 24 24 l 25
 24 54 l 25
6 48 m 25
 6 30 l 25
 12 30 l 25
 12 48 l 25
 6 48 l 25
0 54 m 25
 12 54 l 25
 12 48 l 25
 18 48 l 25
 18 30 l 25
 12 30 l 25
 12 24 l 25
 0 24 l 25
 0 54 l 25
EndSplineSet
Validated: 5
EndChar

StartChar: uni0011
Encoding: 17 17 16
Width: 42
VWidth: 0
Flags: HMW
LayerCount: 2
Back
Fore
SplineSet
18 18 m 29
 24 18 l 25
 24 -12 l 25
 18 -12 l 25
 18 18 l 29
24 54 m 25
 42 54 l 25
 42 48 l 25
 30 48 l 25
 30 30 l 25
 42 30 l 25
 42 24 l 25
 24 24 l 25
 24 54 l 25
6 48 m 25
 6 30 l 25
 12 30 l 25
 12 48 l 25
 6 48 l 25
0 54 m 25
 12 54 l 25
 12 48 l 25
 18 48 l 25
 18 30 l 25
 12 30 l 25
 12 24 l 25
 0 24 l 25
 0 54 l 25
EndSplineSet
Validated: 5
EndChar

StartChar: uni0012
Encoding: 18 18 17
Width: 42
VWidth: 0
Flags: HMW
LayerCount: 2
Back
Fore
SplineSet
24 18 m 29
 30 18 l 25
 30 -12 l 25
 24 -12 l 25
 24 18 l 29
12 18 m 25
 18 18 l 25
 18 -12 l 25
 12 -12 l 25
 12 18 l 25
24 54 m 25
 42 54 l 25
 42 48 l 25
 30 48 l 25
 30 30 l 25
 42 30 l 25
 42 24 l 25
 24 24 l 25
 24 54 l 25
6 48 m 25
 6 30 l 25
 12 30 l 25
 12 48 l 25
 6 48 l 25
0 54 m 25
 12 54 l 25
 12 48 l 25
 18 48 l 25
 18 30 l 25
 12 30 l 25
 12 24 l 25
 0 24 l 25
 0 54 l 25
EndSplineSet
Validated: 5
EndChar

StartChar: uni0013
Encoding: 19 19 18
Width: 42
VWidth: 0
Flags: HMW
LayerCount: 2
Back
Fore
SplineSet
30 18 m 29
 36 18 l 25
 36 -12 l 25
 30 -12 l 25
 30 18 l 29
18 18 m 25
 24 18 l 25
 24 -12 l 25
 18 -12 l 25
 18 18 l 25
6 18 m 25
 12 18 l 25
 12 -12 l 25
 6 -12 l 25
 6 18 l 25
24 54 m 25
 42 54 l 25
 42 48 l 25
 30 48 l 25
 30 30 l 25
 42 30 l 25
 42 24 l 25
 24 24 l 25
 24 54 l 25
6 48 m 25
 6 30 l 25
 12 30 l 25
 12 48 l 25
 6 48 l 25
0 54 m 25
 12 54 l 25
 12 48 l 25
 18 48 l 25
 18 30 l 25
 12 30 l 25
 12 24 l 25
 0 24 l 25
 0 54 l 25
EndSplineSet
Validated: 5
EndChar

StartChar: uni0014
Encoding: 20 20 19
Width: 42
VWidth: 0
Flags: HMW
LayerCount: 2
Back
Fore
SplineSet
18 18 m 25
 24 18 l 25
 24 0 l 25
 30 0 l 25
 30 18 l 25
 36 18 l 25
 36 0 l 25
 30 0 l 25
 30 -12 l 1
 24 -12 l 29
 24 0 l 1
 18 0 l 25
 18 18 l 25
6 18 m 25
 12 18 l 25
 12 -12 l 25
 6 -12 l 25
 6 18 l 25
24 54 m 25
 42 54 l 25
 42 48 l 25
 30 48 l 25
 30 30 l 25
 42 30 l 25
 42 24 l 25
 24 24 l 25
 24 54 l 25
6 48 m 25
 6 30 l 25
 12 30 l 25
 12 48 l 25
 6 48 l 25
0 54 m 25
 12 54 l 25
 12 48 l 25
 18 48 l 25
 18 30 l 25
 12 30 l 25
 12 24 l 25
 0 24 l 25
 0 54 l 25
EndSplineSet
Validated: 5
EndChar

StartChar: uni0015
Encoding: 21 21 20
Width: 42
VWidth: 0
Flags: HMW
LayerCount: 2
Back
Fore
SplineSet
30 18 m 29
 30 6 l 25
 24 6 l 25
 24 0 l 25
 30 0 l 25
 30 -12 l 25
 24 -12 l 25
 24 0 l 25
 18 0 l 25
 18 -12 l 25
 12 -12 l 25
 12 18 l 25
 18 18 l 25
 18 6 l 25
 24 6 l 25
 24 18 l 25
 30 18 l 29
30 48 m 25
 30 42 l 25
 36 42 l 25
 36 48 l 25
 30 48 l 25
24 54 m 25
 42 54 l 25
 42 24 l 25
 36 24 l 25
 36 36 l 25
 30 36 l 25
 30 24 l 25
 24 24 l 25
 24 54 l 25
0 54 m 25
 12 54 l 25
 12 48 l 25
 18 48 l 25
 18 24 l 25
 12 24 l 25
 12 48 l 25
 6 48 l 25
 6 24 l 25
 0 24 l 25
 0 54 l 25
EndSplineSet
Validated: 5
EndChar

StartChar: uni0016
Encoding: 22 22 21
Width: 42
VWidth: 0
Flags: HMW
LayerCount: 2
Back
Fore
SplineSet
12 18 m 25
 24 18 l 1
 24 12 l 25
 30 12 l 1
 30 -12 l 25
 24 -12 l 25
 24 12 l 25
 18 12 l 25
 18 -12 l 25
 12 -12 l 25
 12 18 l 25
24 54 m 25
 30 54 l 25
 30 42 l 25
 36 42 l 25
 36 54 l 25
 42 54 l 25
 42 42 l 25
 36 42 l 25
 36 24 l 1
 30 24 l 25
 30 42 l 1
 24 42 l 25
 24 54 l 25
0 54 m 25
 18 54 l 25
 18 48 l 25
 6 48 l 25
 6 42 l 25
 18 42 l 25
 18 24 l 25
 0 24 l 25
 0 30 l 25
 12 30 l 25
 12 36 l 25
 0 36 l 25
 0 54 l 25
EndSplineSet
Validated: 5
EndChar

StartChar: uni0017
Encoding: 23 23 22
Width: 42
VWidth: 0
Flags: HMW
LayerCount: 2
Back
Fore
SplineSet
18 0 m 29
 18 -6 l 25
 24 -6 l 25
 24 0 l 25
 18 0 l 29
18 12 m 25
 18 6 l 25
 24 6 l 25
 24 12 l 25
 18 12 l 25
12 18 m 25
 24 18 l 25
 24 12 l 25
 30 12 l 25
 30 6 l 25
 24 6 l 25
 24 0 l 25
 30 0 l 25
 30 -6 l 25
 24 -6 l 25
 24 -12 l 25
 12 -12 l 25
 12 18 l 25
24 54 m 25
 42 54 l 25
 42 48 l 25
 36 48 l 25
 36 24 l 25
 30 24 l 25
 30 48 l 25
 24 48 l 25
 24 54 l 25
0 54 m 25
 18 54 l 25
 18 48 l 25
 6 48 l 25
 6 42 l 25
 18 42 l 25
 18 36 l 25
 6 36 l 25
 6 30 l 25
 18 30 l 1
 18 24 l 25
 0 24 l 1
 0 54 l 25
EndSplineSet
Validated: 5
EndChar

StartChar: uni0018
Encoding: 24 24 23
Width: 42
VWidth: 0
Flags: HMW
LayerCount: 2
Back
Fore
SplineSet
12 18 m 29
 24 18 l 25
 24 12 l 25
 30 12 l 25
 30 -12 l 25
 24 -12 l 25
 24 12 l 25
 18 12 l 25
 18 -12 l 25
 12 -12 l 25
 12 18 l 29
30 48 m 25
 30 42 l 25
 36 42 l 25
 36 48 l 25
 30 48 l 25
24 54 m 25
 42 54 l 25
 42 24 l 25
 36 24 l 25
 36 36 l 25
 30 36 l 25
 30 24 l 25
 24 24 l 25
 24 54 l 25
6 54 m 25
 18 54 l 25
 18 48 l 25
 6 48 l 25
 6 30 l 25
 18 30 l 25
 18 24 l 25
 6 24 l 25
 6 30 l 25
 0 30 l 25
 0 48 l 25
 6 48 l 25
 6 54 l 25
EndSplineSet
Validated: 5
EndChar

StartChar: uni0019
Encoding: 25 25 24
Width: 42
VWidth: 0
Flags: HMW
LayerCount: 2
Back
Fore
SplineSet
6 18 m 29
 30 18 l 25
 30 12 l 25
 36 12 l 25
 36 -12 l 25
 30 -12 l 25
 30 12 l 25
 24 12 l 25
 24 -12 l 25
 18 -12 l 25
 18 12 l 25
 12 12 l 25
 12 -12 l 25
 6 -12 l 25
 6 18 l 29
12 54 m 25
 30 54 l 25
 30 48 l 25
 18 48 l 25
 18 42 l 25
 30 42 l 25
 30 36 l 25
 18 36 l 25
 18 30 l 25
 30 30 l 25
 30 24 l 25
 12 24 l 25
 12 54 l 25
EndSplineSet
Validated: 5
EndChar

StartChar: uni001A
Encoding: 26 26 25
Width: 42
VWidth: 0
Flags: HMW
LayerCount: 2
Back
Fore
SplineSet
18 0 m 25
 18 -6 l 25
 24 -6 l 25
 24 0 l 25
 18 0 l 25
18 12 m 25
 18 6 l 1
 24 6 l 25
 24 12 l 1
 18 12 l 25
12 18 m 25
 24 18 l 25
 24 12 l 25
 30 12 l 25
 30 6 l 25
 24 6 l 25
 24 0 l 25
 30 0 l 25
 30 -6 l 25
 24 -6 l 25
 24 -12 l 25
 12 -12 l 25
 12 18 l 25
24 54 m 25
 30 54 l 25
 30 30 l 25
 36 30 l 25
 36 54 l 25
 42 54 l 25
 42 24 l 25
 24 24 l 25
 24 54 l 25
0 54 m 25
 18 54 l 25
 18 48 l 25
 6 48 l 25
 6 42 l 25
 18 42 l 25
 18 24 l 25
 0 24 l 25
 0 30 l 25
 12 30 l 25
 12 36 l 25
 0 36 l 25
 0 54 l 25
EndSplineSet
Validated: 5
EndChar

StartChar: uni001B
Encoding: 27 27 26
Width: 42
VWidth: 0
InSpiro: 1
Flags: HMW
LayerCount: 2
Back
Fore
SplineSet
12 18 m 1
 30 18 l 1
 30 12 l 1
 18 12 l 1
 18 -6 l 1
 30 -6 l 1
 30 -12 l 1
 12 -12 l 1
 12 18 l 1
  Spiro
    12 18 v
    30 18 v
    30 12 v
    18 12 v
    18 -6 v
    30 -6 v
    30 -12 v
    12 -12 v
    0 0 z
  EndSpiro
24 54 m 1
 42 54 l 1
 42 48 l 1
 30 48 l 1
 30 42 l 1
 42 42 l 1
 42 24 l 1
 24 24 l 1
 24 30 l 1
 36 30 l 1
 36 36 l 1
 24 36 l 1
 24 54 l 1
  Spiro
    24 54 v
    42 54 v
    42 48 v
    30 48 v
    30 42 v
    42 42 v
    42 24 v
    24 24 v
    24 30 v
    36 30 v
    36 36 v
    24 36 v
    0 0 z
  EndSpiro
0 54 m 1
 18 54 l 1
 18 48 l 1
 6 48 l 1
 6 42 l 1
 18 42 l 1
 18 36 l 1
 6 36 l 1
 6 30 l 1
 18 30 l 1
 18 24 l 1
 0 24 l 1
 0 54 l 1
  Spiro
    0 54 v
    18 54 v
    18 48 v
    6 48 v
    6 42 v
    18 42 v
    18 36 v
    6 36 v
    6 30 v
    18 30 v
    18 24 v
    0 24 v
    0 0 z
  EndSpiro
EndSplineSet
Validated: 1
EndChar

StartChar: uni001C
Encoding: 28 28 27
Width: 42
VWidth: 0
Flags: HMW
LayerCount: 2
Back
Fore
SplineSet
0 36 m 29
 18 36 l 25
 18 30 l 25
 6 30 l 25
 6 24 l 25
 18 24 l 25
 18 18 l 25
 6 18 l 25
 6 6 l 25
 0 6 l 25
 0 36 l 29
24 36 m 25
 42 36 l 25
 42 30 l 25
 30 30 l 25
 30 24 l 25
 42 24 l 25
 42 6 l 25
 24 6 l 25
 24 12 l 25
 36 12 l 25
 36 18 l 25
 24 18 l 25
 24 36 l 25
EndSplineSet
Validated: 1
EndChar

StartChar: uni001D
Encoding: 29 29 28
Width: 42
VWidth: 0
Flags: HMW
LayerCount: 2
Back
Fore
SplineSet
0 36 m 29
 18 36 l 25
 18 30 l 25
 6 30 l 25
 6 12 l 25
 12 12 l 25
 12 24 l 25
 18 24 l 25
 18 6 l 25
 0 6 l 25
 0 36 l 29
24 36 m 25
 42 36 l 25
 42 30 l 25
 30 30 l 25
 30 24 l 25
 42 24 l 25
 42 6 l 25
 24 6 l 25
 24 12 l 25
 36 12 l 25
 36 18 l 25
 24 18 l 25
 24 36 l 25
EndSplineSet
Validated: 1
EndChar

StartChar: uni001E
Encoding: 30 30 29
Width: 42
VWidth: 0
Flags: HMW
LayerCount: 2
Back
Fore
SplineSet
6 30 m 29
 6 24 l 25
 12 24 l 25
 12 30 l 25
 6 30 l 29
0 36 m 25
 18 36 l 25
 18 24 l 25
 12 24 l 25
 12 18 l 25
 18 18 l 25
 18 6 l 25
 12 6 l 25
 12 18 l 25
 6 18 l 25
 6 6 l 25
 0 6 l 25
 0 36 l 25
24 36 m 25
 42 36 l 25
 42 30 l 25
 30 30 l 25
 30 24 l 25
 42 24 l 25
 42 6 l 25
 24 6 l 25
 24 12 l 25
 36 12 l 25
 36 18 l 25
 24 18 l 25
 24 36 l 25
EndSplineSet
Validated: 5
EndChar

StartChar: uni001F
Encoding: 31 31 30
Width: 42
VWidth: 0
Flags: HMW
LayerCount: 2
Back
Fore
SplineSet
24 36 m 29
 42 36 l 29
 42 30 l 29
 30 30 l 29
 30 24 l 29
 42 24 l 29
 42 6 l 29
 24 6 l 29
 24 12 l 29
 36 12 l 29
 36 18 l 29
 24 18 l 29
 24 36 l 29
6 36 m 25
 6 12 l 1
 12 12 l 25
 12 36 l 1
 18 36 l 25
 18 6 l 25
 0 6 l 25
 0 36 l 25
 6 36 l 25
EndSplineSet
Validated: 1
EndChar

StartChar: exclam
Encoding: 33 33 32
Width: 42
VWidth: 0
Flags: HMW
LayerCount: 2
Back
Fore
SplineSet
19 18 m 29
 18 19 l 25
 18 53 l 25
 19 54 l 25
 23 54 l 25
 24 53 l 25
 24 19 l 25
 23 18 l 25
 19 18 l 29
21 12 m 25
 27 12 l 25
 30 9 l 25
 30 3 l 25
 27 0 l 25
 21 0 l 25
 18 3 l 25
 18 9 l 25
 21 12 l 25
EndSplineSet
Validated: 1
EndChar

StartChar: numbersign
Encoding: 35 35 34
Width: 42
VWidth: 0
Flags: HMW
LayerCount: 2
Back
Fore
SplineSet
12 20 m 29
 12 18 l 25
 24 18 l 25
 24 22 l 25
 30 28 l 25
 30 30 l 25
 18 30 l 25
 18 26 l 25
 12 20 l 29
12 47 m 25
 13 48 l 25
 17 48 l 25
 18 47 l 25
 18 36 l 25
 30 36 l 25
 30 47 l 25
 31 48 l 25
 35 48 l 25
 36 47 l 25
 36 36 l 25
 41 36 l 25
 42 35 l 25
 42 31 l 25
 41 30 l 25
 36 30 l 25
 36 26 l 25
 30 20 l 25
 30 18 l 25
 41 18 l 25
 42 17 l 25
 42 13 l 25
 41 12 l 25
 30 12 l 25
 30 1 l 25
 29 0 l 25
 25 0 l 25
 24 1 l 25
 24 12 l 25
 12 12 l 25
 12 1 l 25
 11 0 l 25
 7 0 l 25
 6 1 l 25
 6 12 l 25
 1 12 l 25
 0 13 l 25
 0 17 l 25
 1 18 l 25
 6 18 l 25
 6 22 l 25
 12 28 l 25
 12 30 l 25
 1 30 l 25
 0 31 l 25
 0 35 l 25
 1 36 l 25
 12 36 l 25
 12 47 l 25
EndSplineSet
Validated: 1
EndChar

StartChar: dollar
Encoding: 36 36 35
Width: 42
VWidth: 0
Flags: HMW
LayerCount: 2
Back
Fore
SplineSet
24 6 m 1
 26 6 l 1
 30 10 l 1
 30 14 l 1
 24 20 l 25
 24 6 l 1
12 38 m 1
 12 34 l 1
 16 30 l 1
 18 30 l 1
 18 42 l 1
 16 42 l 1
 12 38 l 1
18 59 m 25
 19 60 l 25
 23 60 l 25
 24 59 l 25
 24 48 l 25
 28 48 l 25
 36 40 l 25
 36 37 l 25
 35 36 l 25
 32 36 l 25
 26 42 l 25
 24 42 l 1
 24 28 l 1
 36 16 l 1
 36 8 l 1
 28 0 l 1
 24 0 l 1
 24 -11 l 25
 23 -12 l 25
 19 -12 l 25
 18 -11 l 25
 18 0 l 1
 14 0 l 1
 6 8 l 1
 6 11 l 1
 7 12 l 25
 10 12 l 25
 16 6 l 25
 18 6 l 1
 18 24 l 1
 14 24 l 1
 6 32 l 1
 6 40 l 1
 14 48 l 1
 18 48 l 1
 18 59 l 25
EndSplineSet
Validated: 1
EndChar

StartChar: percent
Encoding: 37 37 36
Width: 42
VWidth: 0
Flags: HMW
LayerCount: 2
Back
Fore
SplineSet
0 18 m 1
 34 35 l 25
 36 30 l 1
 2 13 l 25
 0 18 l 1
18 9 m 25
 21 12 l 1
 27 12 l 25
 30 9 l 25
 30 3 l 25
 27 0 l 25
 21 0 l 25
 18 3 l 1
 18 9 l 25
6 45 m 25
 9 48 l 1
 15 48 l 25
 18 45 l 25
 18 39 l 25
 15 36 l 25
 9 36 l 25
 6 39 l 1
 6 45 l 25
EndSplineSet
Validated: 1
EndChar

StartChar: ampersand
Encoding: 38 38 37
Width: 42
VWidth: 0
Flags: HMW
LayerCount: 2
Back
Fore
SplineSet
15 23 m 1
 6 14 l 25
 6 10 l 25
 10 6 l 25
 20 6 l 25
 26 12 l 25
 15 23 l 1
16 42 m 25
 12 38 l 25
 12 34 l 25
 18 28 l 1
 24 34 l 1
 24 38 l 1
 20 42 l 25
 16 42 l 25
14 48 m 25
 22 48 l 25
 30 40 l 25
 30 32 l 25
 22 24 l 25
 27 19 l 1
 32 24 l 25
 35 24 l 25
 36 23 l 25
 36 20 l 25
 31 15 l 25
 42 4 l 25
 42 1 l 25
 41 0 l 25
 38 0 l 25
 30 8 l 25
 22 0 l 25
 8 0 l 25
 0 8 l 25
 0 16 l 25
 11 27 l 25
 6 32 l 25
 6 40 l 25
 14 48 l 25
EndSplineSet
Validated: 1
EndChar

StartChar: quotesingle
Encoding: 39 39 38
Width: 42
VWidth: 0
Flags: HMW
LayerCount: 2
Back
Fore
SplineSet
18 53 m 1
 19 54 l 25
 23 54 l 25
 24 53 l 25
 24 38 l 25
 16 30 l 25
 13 30 l 25
 12 31 l 25
 12 34 l 1
 18 40 l 25
 18 53 l 1
EndSplineSet
Validated: 1
EndChar

StartChar: parenleft
Encoding: 40 40 39
Width: 42
VWidth: 0
Flags: HMW
LayerCount: 2
Back
Fore
SplineSet
12 30 m 29
 24 54 l 25
 29 54 l 25
 30 53 l 25
 30 49 l 25
 29 48 l 25
 27 48 l 25
 18 30 l 25
 18 12 l 25
 27 -6 l 25
 29 -6 l 25
 30 -7 l 25
 30 -11 l 25
 29 -12 l 25
 24 -12 l 25
 12 12 l 25
 12 30 l 29
EndSplineSet
Validated: 1
EndChar

StartChar: asterisk
Encoding: 42 42 41
Width: 42
VWidth: 0
Flags: HMW
LayerCount: 2
Back
Fore
SplineSet
18 47 m 29
 19 48 l 25
 23 48 l 25
 24 47 l 25
 24 36 l 25
 26 36 l 25
 32 42 l 25
 35 42 l 25
 36 41 l 25
 36 38 l 25
 31 33 l 25
 36 28 l 25
 36 25 l 25
 35 24 l 25
 32 24 l 25
 26 30 l 25
 24 30 l 25
 24 19 l 25
 23 18 l 25
 19 18 l 25
 18 19 l 25
 18 30 l 25
 16 30 l 25
 10 24 l 25
 7 24 l 25
 6 25 l 25
 6 28 l 25
 11 33 l 25
 6 38 l 25
 6 41 l 25
 7 42 l 25
 10 42 l 25
 16 36 l 25
 18 36 l 25
 18 47 l 29
EndSplineSet
Validated: 1
EndChar

StartChar: plus
Encoding: 43 43 42
Width: 42
VWidth: 0
Flags: HMW
LayerCount: 2
Back
Fore
SplineSet
18 24 m 29
 18 41 l 25
 19 42 l 25
 23 42 l 25
 24 41 l 25
 24 24 l 25
 41 24 l 25
 42 23 l 25
 42 19 l 25
 41 18 l 25
 24 18 l 25
 24 1 l 25
 23 0 l 25
 19 0 l 25
 18 1 l 25
 18 18 l 25
 1 18 l 25
 0 19 l 25
 0 23 l 25
 1 24 l 25
 18 24 l 29
EndSplineSet
Validated: 1
EndChar

StartChar: comma
Encoding: 44 44 43
Width: 42
VWidth: 0
Flags: HMW
LayerCount: 2
Back
Fore
SplineSet
9 -12 m 29
 21 12 l 25
 23 12 l 25
 24 11 l 25
 24 6 l 25
 12 -18 l 25
 7 -18 l 25
 6 -17 l 25
 6 -13 l 25
 7 -12 l 25
 9 -12 l 29
EndSplineSet
Validated: 1
EndChar

StartChar: hyphen
Encoding: 45 45 44
Width: 42
VWidth: 0
Flags: HMW
LayerCount: 2
Back
Fore
SplineSet
7 18 m 29
 6 19 l 25
 6 23 l 25
 7 24 l 25
 41 24 l 25
 42 23 l 25
 42 19 l 25
 41 18 l 25
 7 18 l 29
EndSplineSet
Validated: 1
EndChar

StartChar: period
Encoding: 46 46 45
Width: 42
VWidth: 0
Flags: HMW
LayerCount: 2
Back
Fore
SplineSet
18 9 m 29
 21 12 l 25
 27 12 l 25
 30 9 l 25
 30 3 l 25
 27 0 l 25
 21 0 l 25
 18 3 l 25
 18 9 l 29
EndSplineSet
Validated: 1
EndChar

StartChar: slash
Encoding: 47 47 46
Width: 42
VWidth: 0
Flags: HMW
LayerCount: 2
Back
Fore
SplineSet
6 2 m 29
 32 54 l 25
 35 54 l 25
 36 53 l 25
 36 46 l 25
 10 -6 l 25
 7 -6 l 25
 6 -5 l 25
 6 2 l 29
EndSplineSet
Validated: 1
EndChar

StartChar: zero
Encoding: 48 48 47
Width: 42
VWidth: 0
Flags: HMW
LayerCount: 2
Back
Fore
SplineSet
19 30 m 29
 23 30 l 25
 24 29 l 25
 24 25 l 25
 23 24 l 25
 19 24 l 25
 18 25 l 25
 18 29 l 25
 19 30 l 29
16 42 m 25
 12 38 l 25
 12 10 l 25
 16 6 l 25
 26 6 l 25
 30 10 l 25
 30 38 l 25
 26 42 l 25
 16 42 l 25
14 48 m 25
 28 48 l 25
 36 40 l 25
 36 8 l 25
 28 0 l 25
 14 0 l 25
 6 8 l 25
 6 40 l 25
 14 48 l 25
EndSplineSet
Validated: 1
EndChar

StartChar: one
Encoding: 49 49 48
Width: 42
VWidth: 0
Flags: HMW
LayerCount: 2
Back
Fore
SplineSet
24 47 m 29
 24 6 l 25
 35 6 l 25
 36 5 l 25
 36 1 l 25
 35 0 l 25
 7 0 l 25
 6 1 l 25
 6 5 l 25
 7 6 l 25
 18 6 l 25
 18 36 l 25
 13 36 l 25
 12 37 l 25
 12 39 l 25
 21 48 l 25
 23 48 l 25
 24 47 l 29
EndSplineSet
Validated: 1
EndChar

StartChar: two
Encoding: 50 50 49
Width: 42
VWidth: 0
Flags: HMW
LayerCount: 2
Back
Fore
SplineSet
6 40 m 29
 14 48 l 25
 28 48 l 25
 36 40 l 25
 36 26 l 25
 22 12 l 25
 16 12 l 25
 12 8 l 25
 12 6 l 25
 35 6 l 25
 36 5 l 25
 36 1 l 25
 35 0 l 25
 7 0 l 25
 6 1 l 25
 6 10 l 25
 14 18 l 25
 20 18 l 25
 30 28 l 25
 30 38 l 25
 26 42 l 25
 16 42 l 25
 12 38 l 25
 12 31 l 25
 11 30 l 25
 7 30 l 25
 6 31 l 25
 6 40 l 29
EndSplineSet
Validated: 1
EndChar

StartChar: three
Encoding: 51 51 50
Width: 42
VWidth: 0
Flags: HMW
LayerCount: 2
Back
Fore
SplineSet
6 37 m 25
 6 40 l 25
 14 48 l 25
 28 48 l 25
 36 40 l 25
 36 32 l 25
 31 27 l 25
 36 22 l 25
 36 8 l 25
 28 0 l 25
 14 0 l 25
 6 8 l 25
 6 11 l 25
 7 12 l 25
 10 12 l 25
 16 6 l 25
 26 6 l 25
 30 10 l 25
 30 20 l 25
 26 24 l 25
 19 24 l 25
 18 25 l 25
 18 29 l 25
 19 30 l 25
 26 30 l 25
 30 34 l 25
 30 38 l 1
 26 42 l 25
 16 42 l 1
 10 36 l 25
 7 36 l 25
 6 37 l 25
EndSplineSet
Validated: 1
EndChar

StartChar: four
Encoding: 52 52 51
Width: 42
VWidth: 0
Flags: HMW
LayerCount: 2
Back
Fore
SplineSet
24 42 m 29
 21 42 l 25
 12 24 l 25
 12 18 l 25
 24 18 l 25
 24 42 l 29
29 48 m 25
 30 47 l 25
 30 18 l 25
 35 18 l 25
 36 17 l 25
 36 13 l 25
 35 12 l 25
 30 12 l 25
 30 1 l 25
 29 0 l 25
 25 0 l 25
 24 1 l 25
 24 12 l 25
 7 12 l 25
 6 13 l 25
 6 24 l 25
 18 48 l 25
 29 48 l 25
EndSplineSet
Validated: 1
EndChar

StartChar: five
Encoding: 53 53 52
Width: 42
VWidth: 0
Flags: HMW
LayerCount: 2
Back
Fore
SplineSet
6 47 m 29
 7 48 l 25
 35 48 l 25
 36 47 l 25
 36 43 l 25
 35 42 l 25
 12 42 l 25
 12 30 l 25
 28 30 l 25
 36 22 l 25
 36 8 l 25
 28 0 l 25
 14 0 l 25
 6 8 l 25
 6 11 l 25
 7 12 l 25
 10 12 l 25
 16 6 l 25
 26 6 l 25
 30 10 l 25
 30 20 l 25
 26 24 l 25
 7 24 l 25
 6 25 l 25
 6 47 l 29
EndSplineSet
Validated: 1
EndChar

StartChar: six
Encoding: 54 54 53
Width: 42
VWidth: 0
Flags: HMW
LayerCount: 2
Back
Fore
SplineSet
12 24 m 29
 12 10 l 25
 16 6 l 25
 26 6 l 25
 30 10 l 25
 30 20 l 25
 26 24 l 25
 12 24 l 29
20 48 m 25
 29 48 l 25
 30 47 l 25
 30 43 l 25
 29 42 l 25
 22 42 l 25
 12 32 l 25
 12 30 l 25
 28 30 l 25
 36 22 l 25
 36 8 l 25
 28 0 l 25
 14 0 l 25
 6 8 l 25
 6 34 l 25
 20 48 l 25
EndSplineSet
Validated: 1
EndChar

StartChar: seven
Encoding: 55 55 54
Width: 42
VWidth: 0
Flags: HMW
LayerCount: 2
Back
Fore
SplineSet
7 48 m 29
 35 48 l 25
 36 47 l 25
 36 42 l 25
 18 6 l 25
 18 1 l 25
 17 0 l 25
 13 0 l 25
 12 1 l 25
 12 6 l 25
 30 42 l 25
 7 42 l 25
 6 43 l 25
 6 47 l 25
 7 48 l 29
EndSplineSet
Validated: 1
EndChar

StartChar: eight
Encoding: 56 56 55
Width: 42
VWidth: 0
Flags: HMW
LayerCount: 2
Back
Fore
SplineSet
26 24 m 29
 16 24 l 25
 12 20 l 25
 12 10 l 25
 16 6 l 25
 26 6 l 25
 30 10 l 25
 30 20 l 25
 26 24 l 29
16 42 m 25
 12 38 l 25
 12 34 l 25
 16 30 l 25
 26 30 l 25
 30 34 l 25
 30 38 l 25
 26 42 l 25
 16 42 l 25
6 40 m 25
 14 48 l 25
 28 48 l 25
 36 40 l 25
 36 32 l 25
 31 27 l 25
 36 22 l 25
 36 8 l 25
 28 0 l 25
 14 0 l 25
 6 8 l 25
 6 22 l 25
 11 27 l 25
 6 32 l 25
 6 40 l 25
EndSplineSet
Validated: 1
EndChar

StartChar: nine
Encoding: 57 57 56
Width: 42
VWidth: 0
Flags: HMW
LayerCount: 2
Back
Fore
SplineSet
16 42 m 29
 12 38 l 25
 12 28 l 25
 16 24 l 25
 30 24 l 25
 30 38 l 25
 26 42 l 25
 16 42 l 29
14 48 m 25
 28 48 l 25
 36 40 l 25
 36 14 l 25
 22 0 l 25
 13 0 l 25
 12 1 l 25
 12 5 l 25
 13 6 l 25
 20 6 l 25
 30 16 l 25
 30 18 l 25
 14 18 l 25
 6 26 l 25
 6 40 l 25
 14 48 l 25
EndSplineSet
Validated: 1
EndChar

StartChar: semicolon
Encoding: 59 59 58
Width: 42
VWidth: 0
Flags: HMW
LayerCount: 2
Back
Fore
SplineSet
29 12 m 29
 30 11 l 25
 30 2 l 25
 10 -18 l 25
 7 -18 l 25
 6 -17 l 25
 6 -13 l 25
 7 -12 l 25
 9 -12 l 25
 21 12 l 25
 29 12 l 29
EndSplineSet
Refer: 45 46 N 1 0 0 1 0 24 2
Validated: 1
EndChar

StartChar: less
Encoding: 60 60 59
Width: 42
VWidth: 0
Flags: HMW
LayerCount: 2
Back
Fore
SplineSet
5 21 m 29
 32 48 l 25
 35 48 l 25
 36 47 l 25
 36 44 l 25
 13 21 l 25
 36 -2 l 25
 36 -5 l 25
 35 -6 l 25
 32 -6 l 25
 5 21 l 29
EndSplineSet
Validated: 1
EndChar

StartChar: equal
Encoding: 61 61 60
Width: 42
VWidth: 0
Flags: HMW
LayerCount: 2
Back
Fore
SplineSet
7 6 m 29
 6 7 l 25
 6 11 l 25
 7 12 l 25
 41 12 l 25
 42 11 l 25
 42 7 l 25
 41 6 l 25
 7 6 l 29
7 24 m 29
 6 25 l 25
 6 29 l 25
 7 30 l 25
 41 30 l 25
 42 29 l 25
 42 25 l 25
 41 24 l 25
 7 24 l 29
EndSplineSet
Validated: 1
EndChar

StartChar: question
Encoding: 63 63 62
Width: 42
VWidth: 0
Flags: HMW
LayerCount: 2
Back
Fore
SplineSet
6 46 m 29
 14 54 l 25
 28 54 l 25
 36 46 l 25
 36 38 l 25
 28 30 l 25
 22 30 l 25
 18 26 l 25
 18 19 l 25
 17 18 l 25
 13 18 l 25
 12 19 l 25
 12 28 l 25
 20 36 l 25
 26 36 l 25
 30 40 l 25
 30 44 l 25
 26 48 l 25
 16 48 l 25
 10 42 l 25
 7 42 l 25
 6 43 l 25
 6 46 l 29
EndSplineSet
Refer: 45 46 N 1 0 0 1 -6 0 2
Validated: 1
EndChar

StartChar: at
Encoding: 64 64 63
Width: 42
VWidth: 0
Flags: HMW
LayerCount: 2
Back
Fore
SplineSet
22 30 m 29
 18 26 l 25
 18 22 l 25
 22 18 l 25
 24 18 l 25
 24 30 l 25
 22 30 l 29
14 48 m 25
 28 48 l 25
 42 34 l 25
 42 20 l 25
 34 12 l 25
 20 12 l 25
 12 20 l 25
 12 28 l 25
 20 36 l 25
 29 36 l 25
 30 35 l 25
 30 18 l 25
 32 18 l 25
 36 22 l 25
 36 32 l 25
 26 42 l 25
 16 42 l 25
 6 32 l 25
 6 16 l 25
 16 6 l 25
 35 6 l 25
 36 5 l 25
 36 1 l 25
 35 0 l 25
 14 0 l 25
 0 14 l 25
 0 34 l 25
 14 48 l 25
EndSplineSet
Validated: 1
EndChar

StartChar: A
Encoding: 65 65 64
Width: 42
VWidth: 0
Flags: HMW
LayerCount: 2
Back
Fore
SplineSet
21 36 m 25
 12 18 l 25
 30 18 l 25
 21 36 l 25
20 48 m 1
 22 48 l 1
 42 8 l 5
 42 1 l 1
 41 0 l 25
 37 0 l 25
 36 1 l 25
 36 6 l 25
 33 12 l 25
 9 12 l 25
 6 6 l 25
 6 1 l 25
 5 0 l 25
 1 0 l 25
 0 1 l 1
 0 8 l 1
 20 48 l 1
EndSplineSet
Validated: 1
EndChar

StartChar: B
Encoding: 66 66 65
Width: 42
VWidth: 0
Flags: HMW
LayerCount: 2
Back
Fore
SplineSet
12 24 m 29
 12 6 l 25
 26 6 l 25
 30 10 l 25
 30 20 l 25
 26 24 l 25
 12 24 l 29
12 42 m 25
 12 30 l 25
 26 30 l 25
 30 34 l 25
 30 38 l 25
 26 42 l 25
 12 42 l 25
7 48 m 25
 28 48 l 25
 36 40 l 25
 36 32 l 25
 31 27 l 25
 36 22 l 25
 36 8 l 25
 28 0 l 25
 7 0 l 25
 6 1 l 25
 6 47 l 25
 7 48 l 25
EndSplineSet
Validated: 1
EndChar

StartChar: C
Encoding: 67 67 66
Width: 42
VWidth: 0
Flags: HMW
LayerCount: 2
Back
Fore
SplineSet
14 48 m 29
 28 48 l 25
 36 40 l 25
 36 37 l 25
 35 36 l 25
 32 36 l 25
 26 42 l 25
 16 42 l 25
 12 38 l 25
 12 10 l 25
 16 6 l 25
 26 6 l 25
 32 12 l 25
 35 12 l 25
 36 11 l 25
 36 8 l 25
 28 0 l 25
 14 0 l 25
 6 8 l 25
 6 40 l 25
 14 48 l 29
EndSplineSet
Validated: 1
EndChar

StartChar: D
Encoding: 68 68 67
Width: 42
VWidth: 0
Flags: HMW
LayerCount: 2
Back
Fore
SplineSet
12 42 m 29
 12 6 l 25
 20 6 l 25
 30 16 l 25
 30 32 l 25
 20 42 l 25
 12 42 l 29
7 48 m 25
 22 48 l 25
 36 34 l 25
 36 14 l 25
 22 0 l 25
 7 0 l 25
 6 1 l 25
 6 47 l 25
 7 48 l 25
EndSplineSet
Validated: 1
EndChar

StartChar: E
Encoding: 69 69 68
Width: 42
VWidth: 0
Flags: HMW
LayerCount: 2
Back
Fore
SplineSet
7 48 m 29
 35 48 l 25
 36 47 l 25
 36 43 l 25
 35 42 l 25
 12 42 l 25
 12 30 l 25
 29 30 l 25
 30 29 l 25
 30 25 l 25
 29 24 l 25
 12 24 l 25
 12 6 l 25
 35 6 l 25
 36 5 l 25
 36 1 l 25
 35 0 l 25
 7 0 l 25
 6 1 l 25
 6 47 l 25
 7 48 l 29
EndSplineSet
Validated: 1
EndChar

StartChar: F
Encoding: 70 70 69
Width: 42
VWidth: 0
Flags: HMW
LayerCount: 2
Back
Fore
SplineSet
7 48 m 29
 35 48 l 25
 36 47 l 25
 36 43 l 25
 35 42 l 25
 12 42 l 25
 12 30 l 25
 29 30 l 25
 30 29 l 25
 30 25 l 25
 29 24 l 25
 12 24 l 25
 12 1 l 25
 11 0 l 25
 7 0 l 25
 6 1 l 25
 6 47 l 25
 7 48 l 29
EndSplineSet
Validated: 1
EndChar

StartChar: G
Encoding: 71 71 70
Width: 42
VWidth: 0
Flags: HMW
LayerCount: 2
Back
Fore
SplineSet
14 48 m 25
 28 48 l 25
 36 40 l 25
 36 37 l 25
 35 36 l 25
 32 36 l 25
 26 42 l 25
 16 42 l 25
 12 38 l 25
 12 10 l 25
 16 6 l 25
 20 6 l 25
 30 16 l 25
 30 18 l 25
 25 18 l 25
 24 19 l 25
 24 23 l 25
 25 24 l 25
 35 24 l 25
 36 23 l 25
 36 1 l 25
 35 0 l 25
 31 0 l 25
 30 1 l 1
 30 8 l 29
 22 0 l 29
 14 0 l 25
 6 8 l 25
 6 40 l 25
 14 48 l 25
EndSplineSet
Validated: 1
EndChar

StartChar: H
Encoding: 72 72 71
Width: 42
VWidth: 0
Flags: HMW
LayerCount: 2
Back
Fore
SplineSet
11 48 m 29
 12 47 l 25
 12 30 l 25
 30 30 l 25
 30 47 l 25
 31 48 l 25
 35 48 l 25
 36 47 l 25
 36 1 l 25
 34 0 l 25
 31 0 l 25
 30 2 l 25
 30 24 l 25
 12 24 l 25
 12 1 l 25
 11 0 l 25
 7 0 l 25
 6 1 l 25
 6 47 l 25
 7 48 l 25
 11 48 l 29
EndSplineSet
Validated: 1
EndChar

StartChar: I
Encoding: 73 73 72
Width: 42
VWidth: 0
Flags: HMW
LayerCount: 2
Back
Fore
SplineSet
7 48 m 29
 35 48 l 25
 36 47 l 25
 36 43 l 25
 34 42 l 25
 24 42 l 25
 24 6 l 25
 35 6 l 25
 36 5 l 25
 36 1 l 25
 35 0 l 25
 7 0 l 25
 6 1 l 25
 6 5 l 25
 7 6 l 25
 18 6 l 25
 18 42 l 25
 7 42 l 25
 6 43 l 25
 6 47 l 25
 7 48 l 29
EndSplineSet
Validated: 1
EndChar

StartChar: J
Encoding: 74 74 73
Width: 42
VWidth: 0
Flags: HMW
LayerCount: 2
Back
Fore
SplineSet
19 48 m 29
 35 48 l 25
 36 47 l 25
 36 8 l 25
 28 0 l 25
 14 0 l 25
 6 8 l 25
 6 11 l 25
 7 12 l 25
 10 12 l 25
 16 6 l 25
 26 6 l 25
 30 10 l 25
 30 42 l 25
 19 42 l 25
 18 43 l 25
 18 47 l 25
 19 48 l 29
EndSplineSet
Validated: 1
EndChar

StartChar: K
Encoding: 75 75 74
Width: 42
VWidth: 0
Flags: HMW
LayerCount: 2
Back
Fore
SplineSet
12 47 m 25
 12 30 l 25
 14 30 l 25
 32 48 l 25
 35 48 l 1
 36 47 l 25
 36 44 l 1
 19 27 l 1
 36 10 l 25
 36 1 l 25
 35 0 l 25
 31 0 l 1
 30 1 l 25
 30 8 l 1
 14 24 l 25
 12 24 l 25
 12 1 l 25
 11 0 l 25
 7 0 l 25
 6 1 l 25
 6 47 l 25
 7 48 l 25
 11 48 l 25
 12 47 l 25
EndSplineSet
Validated: 1
EndChar

StartChar: L
Encoding: 76 76 75
Width: 42
VWidth: 0
Flags: HMW
LayerCount: 2
Back
Fore
SplineSet
7 48 m 29
 11 48 l 25
 12 47 l 25
 12 6 l 25
 41 6 l 25
 42 5 l 25
 42 1 l 25
 41 0 l 25
 7 0 l 25
 6 1 l 25
 6 47 l 25
 7 48 l 29
EndSplineSet
Validated: 1
EndChar

StartChar: M
Encoding: 77 77 76
Width: 42
VWidth: 0
Flags: HMW
LayerCount: 2
Back
Fore
SplineSet
7 48 m 29
 10 48 l 25
 21 37 l 25
 32 48 l 25
 35 48 l 25
 36 47 l 25
 36 1 l 25
 35 0 l 25
 31 0 l 25
 30 1 l 25
 30 38 l 25
 24 32 l 25
 24 25 l 25
 23 24 l 25
 19 24 l 25
 18 25 l 25
 18 32 l 25
 12 38 l 25
 12 1 l 25
 11 0 l 25
 7 0 l 25
 6 1 l 25
 6 47 l 25
 7 48 l 29
EndSplineSet
Validated: 1
EndChar

StartChar: N
Encoding: 78 78 77
Width: 42
VWidth: 0
Flags: HMW
LayerCount: 2
Back
Fore
SplineSet
12 47 m 29
 12 34 l 25
 30 16 l 25
 30 47 l 25
 31 48 l 25
 35 48 l 25
 36 47 l 25
 36 1 l 25
 35 0 l 25
 31 0 l 25
 30 1 l 25
 30 8 l 25
 12 26 l 25
 12 1 l 25
 11 0 l 25
 7 0 l 25
 6 1 l 25
 6 47 l 25
 7 48 l 25
 11 48 l 25
 12 47 l 29
EndSplineSet
Validated: 1
EndChar

StartChar: O
Encoding: 79 79 78
Width: 42
VWidth: 0
Flags: HMW
LayerCount: 2
Back
Fore
SplineSet
16 42 m 29
 12 38 l 25
 12 10 l 25
 16 6 l 25
 26 6 l 25
 30 10 l 25
 30 38 l 25
 26 42 l 25
 16 42 l 29
14 48 m 25
 28 48 l 25
 36 40 l 25
 36 8 l 25
 28 0 l 25
 14 0 l 25
 6 8 l 25
 6 40 l 25
 14 48 l 25
EndSplineSet
Validated: 1
EndChar

StartChar: P
Encoding: 80 80 79
Width: 42
VWidth: 0
Flags: HMW
LayerCount: 2
Back
Fore
SplineSet
12 42 m 29
 12 24 l 25
 26 24 l 25
 30 28 l 25
 30 38 l 25
 26 42 l 25
 12 42 l 29
7 48 m 25
 28 48 l 25
 36 40 l 25
 36 26 l 25
 28 18 l 25
 12 18 l 25
 12 1 l 25
 11 0 l 25
 7 0 l 25
 6 1 l 25
 6 47 l 25
 7 48 l 25
EndSplineSet
Validated: 1
EndChar

StartChar: Q
Encoding: 81 81 80
Width: 42
VWidth: 0
Flags: HMW
LayerCount: 2
Back
Fore
SplineSet
16 42 m 25
 12 38 l 25
 12 10 l 25
 16 6 l 1
 24 6 l 1
 24 10 l 1
 30 16 l 1
 30 38 l 25
 26 42 l 25
 16 42 l 25
14 48 m 25
 28 48 l 25
 36 40 l 25
 36 14 l 25
 30 8 l 25
 30 -2 l 25
 36 -8 l 25
 36 -11 l 25
 35 -12 l 25
 32 -12 l 25
 24 -4 l 25
 24 0 l 25
 14 0 l 25
 6 8 l 25
 6 40 l 25
 14 48 l 25
EndSplineSet
Validated: 1
EndChar

StartChar: R
Encoding: 82 82 81
Width: 42
VWidth: 0
Flags: HMW
LayerCount: 2
Back
Fore
SplineSet
12 42 m 25
 12 24 l 25
 26 24 l 25
 30 28 l 25
 30 38 l 25
 26 42 l 25
 12 42 l 25
7 48 m 25
 28 48 l 25
 36 40 l 25
 36 26 l 25
 28 18 l 25
 36 10 l 1
 36 1 l 25
 35 0 l 25
 31 0 l 25
 30 1 l 25
 30 8 l 25
 20 18 l 25
 12 18 l 25
 12 1 l 25
 11 0 l 25
 7 0 l 25
 6 1 l 25
 6 47 l 25
 7 48 l 25
EndSplineSet
Validated: 1
EndChar

StartChar: S
Encoding: 83 83 82
Width: 42
VWidth: 0
Flags: HMW
LayerCount: 2
Back
Fore
SplineSet
14 48 m 25
 28 48 l 25
 36 40 l 25
 36 37 l 25
 35 36 l 25
 32 36 l 25
 26 42 l 25
 16 42 l 25
 12 38 l 25
 12 34 l 25
 16 30 l 25
 22 30 l 25
 36 16 l 25
 36 8 l 25
 28 0 l 25
 14 0 l 25
 6 8 l 25
 6 11 l 25
 7 12 l 25
 10 12 l 25
 16 6 l 25
 26 6 l 25
 30 10 l 1
 30 14 l 25
 20 24 l 1
 14 24 l 25
 6 32 l 25
 6 40 l 25
 14 48 l 25
EndSplineSet
Validated: 1
EndChar

StartChar: T
Encoding: 84 84 83
Width: 42
VWidth: 0
Flags: HMW
LayerCount: 2
Back
Fore
SplineSet
1 48 m 29
 41 48 l 25
 42 47 l 25
 42 43 l 25
 41 42 l 25
 24 42 l 25
 24 1 l 25
 23 0 l 25
 19 0 l 25
 18 1 l 25
 18 42 l 25
 1 42 l 25
 0 43 l 25
 0 47 l 25
 1 48 l 29
EndSplineSet
Validated: 1
EndChar

StartChar: U
Encoding: 85 85 84
Width: 42
VWidth: 0
Flags: HMW
LayerCount: 2
Back
Fore
SplineSet
12 47 m 29
 12 10 l 25
 16 6 l 25
 26 6 l 25
 30 10 l 25
 30 47 l 25
 31 48 l 25
 35 48 l 25
 36 47 l 25
 36 8 l 25
 28 0 l 25
 14 0 l 25
 6 8 l 25
 6 47 l 25
 7 48 l 25
 11 48 l 25
 12 47 l 29
EndSplineSet
Validated: 1
EndChar

StartChar: V
Encoding: 86 86 85
Width: 42
VWidth: 0
Flags: MW
LayerCount: 2
Back
Fore
SplineSet
3 48 m 25
 21 12 l 25
 39 48 l 25
 41 48 l 25
 42 47 l 1
 42 40 l 5
 22 0 l 1
 20 0 l 1
 0 40 l 1
 0 47 l 1
 1 48 l 25
 3 48 l 25
EndSplineSet
Validated: 1
EndChar

StartChar: W
Encoding: 87 87 86
Width: 42
VWidth: 0
Flags: HMW
LayerCount: 2
Back
Fore
SplineSet
11 48 m 29
 12 47 l 25
 12 10 l 25
 18 16 l 25
 18 29 l 25
 19 30 l 25
 23 30 l 25
 24 29 l 25
 24 16 l 25
 30 10 l 25
 30 47 l 25
 31 48 l 25
 35 48 l 25
 36 47 l 25
 36 1 l 25
 35 0 l 25
 32 0 l 25
 21 11 l 25
 10 0 l 25
 7 0 l 25
 6 1 l 25
 6 47 l 25
 7 48 l 25
 11 48 l 29
EndSplineSet
Validated: 1
EndChar

StartChar: X
Encoding: 88 88 87
Width: 42
VWidth: 0
Flags: HMW
LayerCount: 2
Back
Fore
SplineSet
6 47 m 29
 7 48 l 25
 11 48 l 25
 12 47 l 25
 12 40 l 25
 21 31 l 25
 30 40 l 25
 30 47 l 25
 31 48 l 25
 35 48 l 25
 36 47 l 25
 36 38 l 25
 24 26 l 25
 24 22 l 25
 36 10 l 25
 36 1 l 25
 35 0 l 25
 31 0 l 25
 30 1 l 25
 30 8 l 25
 21 17 l 25
 12 8 l 25
 12 1 l 25
 11 0 l 25
 7 0 l 25
 6 1 l 25
 6 10 l 25
 18 22 l 25
 18 26 l 25
 6 38 l 25
 6 47 l 29
EndSplineSet
Validated: 1
EndChar

StartChar: Y
Encoding: 89 89 88
Width: 42
VWidth: 0
Flags: HMW
LayerCount: 2
Back
Fore
SplineSet
5 48 m 25
 21 24 l 1
 37 48 l 25
 41 48 l 1
 42 47 l 1
 42 45 l 1
 24 17 l 9
 24 1 l 1
 23 0 l 25
 19 0 l 25
 18 1 l 1
 18 17 l 25
 0 45 l 1
 0 47 l 25
 1 48 l 25
 5 48 l 25
EndSplineSet
Validated: 1
EndChar

StartChar: Z
Encoding: 90 90 89
Width: 42
VWidth: 0
Flags: HMW
LayerCount: 2
Back
Fore
SplineSet
7 48 m 29
 36 48 l 25
 15 6 l 25
 35 6 l 25
 36 5 l 25
 36 1 l 25
 35 0 l 25
 6 0 l 25
 27 42 l 25
 7 42 l 25
 6 43 l 25
 6 47 l 25
 7 48 l 29
EndSplineSet
Validated: 1
EndChar

StartChar: bracketleft
Encoding: 91 91 90
Width: 42
VWidth: 0
Flags: HMW
LayerCount: 2
Back
Fore
SplineSet
18 53 m 1
 19 54 l 1
 35 54 l 1
 36 53 l 25
 36 49 l 25
 35 48 l 25
 24 48 l 25
 24 -6 l 25
 35 -6 l 25
 36 -7 l 25
 36 -11 l 25
 35 -12 l 25
 19 -12 l 25
 18 -11 l 25
 18 53 l 1
EndSplineSet
Validated: 1
EndChar

StartChar: backslash
Encoding: 92 92 91
Width: 42
VWidth: 0
Flags: HMW
LayerCount: 2
Back
Fore
SplineSet
6 46 m 25
 6 53 l 25
 7 54 l 25
 10 54 l 25
 36 2 l 25
 36 -5 l 25
 35 -6 l 25
 32 -6 l 25
 6 46 l 25
EndSplineSet
Validated: 1
EndChar

StartChar: asciicircum
Encoding: 94 94 93
Width: 42
VWidth: 0
Flags: HMW
LayerCount: 2
Back
Fore
SplineSet
21 49 m 29
 42 28 l 25
 42 25 l 25
 41 24 l 25
 38 24 l 25
 21 41 l 25
 4 24 l 25
 1 24 l 25
 0 25 l 25
 0 28 l 25
 21 49 l 29
EndSplineSet
Validated: 1
EndChar

StartChar: underscore
Encoding: 95 95 94
Width: 42
VWidth: 0
Flags: HMW
LayerCount: 2
Back
Fore
SplineSet
1 -6 m 29
 41 -6 l 25
 42 -7 l 25
 42 -11 l 25
 41 -12 l 25
 1 -12 l 25
 0 -11 l 25
 0 -7 l 25
 1 -6 l 29
EndSplineSet
Validated: 1
EndChar

StartChar: grave
Encoding: 96 96 95
Width: 42
VWidth: 0
Flags: HMW
LayerCount: 2
Back
Fore
SplineSet
16 54 m 29
 30 40 l 25
 30 37 l 25
 29 36 l 25
 26 36 l 25
 12 50 l 25
 12 53 l 25
 13 54 l 25
 16 54 l 29
EndSplineSet
Validated: 1
EndChar

StartChar: a
Encoding: 97 97 96
Width: 42
VWidth: 0
Flags: HMW
LayerCount: 2
Back
Fore
SplineSet
16 18 m 29
 12 14 l 25
 12 10 l 25
 16 6 l 25
 20 6 l 25
 30 16 l 25
 30 18 l 25
 16 18 l 29
13 36 m 25
 28 36 l 25
 36 28 l 25
 36 1 l 25
 35 0 l 25
 31 0 l 25
 30 1 l 25
 30 8 l 25
 22 0 l 25
 14 0 l 25
 6 8 l 25
 6 16 l 25
 14 24 l 25
 30 24 l 25
 30 26 l 25
 26 30 l 25
 13 30 l 25
 12 31 l 25
 12 35 l 25
 13 36 l 25
EndSplineSet
Validated: 1
EndChar

StartChar: b
Encoding: 98 98 97
Width: 42
VWidth: 0
Flags: HMW
LayerCount: 2
Back
Fore
SplineSet
12 30 m 29
 12 6 l 25
 26 6 l 25
 30 10 l 25
 30 26 l 25
 26 30 l 25
 12 30 l 29
11 54 m 25
 12 53 l 25
 12 36 l 25
 28 36 l 25
 36 28 l 25
 36 8 l 25
 28 0 l 25
 7 0 l 25
 6 1 l 25
 6 53 l 25
 7 54 l 25
 11 54 l 25
EndSplineSet
Validated: 1
EndChar

StartChar: c
Encoding: 99 99 98
Width: 42
VWidth: 0
Flags: HMW
LayerCount: 2
Back
Fore
SplineSet
36 28 m 29
 36 25 l 25
 35 24 l 25
 32 24 l 25
 26 30 l 25
 16 30 l 25
 12 26 l 25
 12 10 l 25
 16 6 l 25
 26 6 l 25
 32 12 l 25
 35 12 l 25
 36 11 l 25
 36 8 l 25
 28 0 l 25
 14 0 l 25
 6 8 l 25
 6 28 l 25
 14 36 l 25
 28 36 l 25
 36 28 l 29
EndSplineSet
Validated: 1
EndChar

StartChar: d
Encoding: 100 100 99
Width: 42
VWidth: 0
Flags: HMW
LayerCount: 2
Back
Fore
SplineSet
16 30 m 29
 12 26 l 25
 12 10 l 25
 16 6 l 25
 30 6 l 25
 30 30 l 25
 16 30 l 29
14 36 m 25
 30 36 l 25
 30 53 l 25
 31 54 l 25
 35 54 l 25
 36 53 l 25
 36 1 l 25
 35 0 l 25
 14 0 l 25
 6 8 l 25
 6 28 l 25
 14 36 l 25
EndSplineSet
Validated: 1
EndChar

StartChar: e
Encoding: 101 101 100
Width: 42
VWidth: 0
Flags: HMW
LayerCount: 2
Back
Fore
SplineSet
16 30 m 25
 12 26 l 25
 12 24 l 25
 30 24 l 25
 30 26 l 25
 26 30 l 25
 16 30 l 25
14 36 m 25
 28 36 l 25
 36 28 l 25
 36 19 l 25
 35 18 l 25
 12 18 l 25
 12 10 l 25
 16 6 l 25
 35 6 l 25
 36 5 l 25
 36 1 l 1
 35 0 l 25
 14 0 l 1
 6 8 l 25
 6 28 l 25
 14 36 l 25
EndSplineSet
Validated: 1
EndChar

StartChar: f
Encoding: 102 102 101
Width: 42
VWidth: 0
Flags: HMW
LayerCount: 2
Back
Fore
SplineSet
26 54 m 29
 35 54 l 25
 36 53 l 25
 36 49 l 25
 35 48 l 25
 28 48 l 25
 24 44 l 25
 24 36 l 25
 35 36 l 25
 36 35 l 25
 36 31 l 25
 35 30 l 25
 24 30 l 25
 24 1 l 25
 23 0 l 25
 19 0 l 25
 18 1 l 25
 18 30 l 25
 7 30 l 25
 6 31 l 25
 6 35 l 25
 7 36 l 25
 18 36 l 25
 18 46 l 25
 26 54 l 29
EndSplineSet
Validated: 1
EndChar

StartChar: g
Encoding: 103 103 102
Width: 42
VWidth: 0
Flags: HMW
LayerCount: 2
Back
Fore
SplineSet
16 30 m 29
 12 26 l 25
 12 10 l 25
 16 6 l 25
 30 6 l 25
 30 30 l 25
 16 30 l 29
14 36 m 25
 35 36 l 25
 36 35 l 25
 36 -10 l 25
 28 -18 l 25
 7 -18 l 25
 6 -17 l 25
 6 -13 l 25
 7 -12 l 25
 26 -12 l 25
 30 -8 l 25
 30 0 l 25
 14 0 l 25
 6 8 l 25
 6 28 l 25
 14 36 l 25
EndSplineSet
Validated: 1
EndChar

StartChar: h
Encoding: 104 104 103
Width: 42
VWidth: 0
Flags: HMW
LayerCount: 2
Back
Fore
SplineSet
7 54 m 29
 11 54 l 25
 12 53 l 25
 12 36 l 25
 28 36 l 25
 36 28 l 25
 36 1 l 25
 35 0 l 25
 31 0 l 25
 30 1 l 25
 30 26 l 25
 26 30 l 25
 12 30 l 25
 12 1 l 25
 11 0 l 25
 7 0 l 25
 6 1 l 25
 6 53 l 25
 7 54 l 29
EndSplineSet
Validated: 1
EndChar

StartChar: i
Encoding: 105 105 104
Width: 42
VWidth: 0
Flags: HMW
LayerCount: 2
Back
Fore
SplineSet
23 36 m 29
 24 35 l 25
 24 1 l 25
 23 0 l 25
 19 0 l 25
 18 1 l 25
 18 30 l 25
 7 30 l 25
 6 31 l 25
 6 35 l 25
 7 36 l 25
 23 36 l 29
19 54 m 25
 23 54 l 25
 24 53 l 25
 24 43 l 25
 23 42 l 25
 19 42 l 25
 18 43 l 25
 18 53 l 25
 19 54 l 25
EndSplineSet
Validated: 1
EndChar

StartChar: j
Encoding: 106 106 105
Width: 42
VWidth: 0
Flags: HMW
LayerCount: 2
Back
Fore
SplineSet
23 36 m 29
 24 35 l 25
 24 -4 l 25
 16 -12 l 25
 7 -12 l 25
 6 -11 l 25
 6 -7 l 25
 7 -6 l 25
 14 -6 l 25
 18 -2 l 25
 18 30 l 25
 7 30 l 25
 6 31 l 25
 6 35 l 25
 7 36 l 25
 23 36 l 29
19 54 m 25
 23 54 l 25
 24 53 l 25
 24 43 l 25
 23 42 l 25
 19 42 l 1
 18 43 l 25
 18 53 l 1
 19 54 l 25
EndSplineSet
Validated: 1
EndChar

StartChar: k
Encoding: 107 107 106
Width: 42
VWidth: 0
Flags: HMW
LayerCount: 2
Back
Fore
SplineSet
12 53 m 25
 12 24 l 25
 14 24 l 25
 26 36 l 25
 29 36 l 25
 30 35 l 1
 30 32 l 25
 19 21 l 1
 36 4 l 25
 36 1 l 25
 35 0 l 25
 32 0 l 25
 14 18 l 25
 12 18 l 25
 12 1 l 25
 11 0 l 25
 7 0 l 25
 6 1 l 25
 6 53 l 25
 7 54 l 25
 11 54 l 25
 12 53 l 25
EndSplineSet
Validated: 1
EndChar

StartChar: l
Encoding: 108 108 107
Width: 42
VWidth: 0
Flags: HMW
LayerCount: 2
Back
Fore
SplineSet
7 54 m 25
 23 54 l 25
 24 53 l 25
 24 10 l 25
 28 6 l 25
 35 6 l 25
 36 5 l 25
 36 1 l 1
 35 0 l 25
 26 0 l 1
 18 8 l 25
 18 48 l 25
 7 48 l 25
 6 49 l 25
 6 53 l 25
 7 54 l 25
EndSplineSet
Validated: 1
EndChar

StartChar: m
Encoding: 109 109 108
Width: 42
VWidth: 0
Flags: HMW
LayerCount: 2
Back
Fore
SplineSet
6 35 m 1
 7 36 l 1
 28 36 l 1
 36 28 l 25
 36 1 l 25
 35 0 l 25
 31 0 l 25
 30 1 l 25
 30 26 l 25
 26 30 l 25
 24 30 l 25
 24 1 l 25
 23 0 l 25
 19 0 l 25
 18 1 l 25
 18 30 l 25
 12 30 l 25
 12 1 l 25
 11 0 l 25
 7 0 l 25
 6 1 l 25
 6 35 l 1
EndSplineSet
Validated: 1
EndChar

StartChar: n
Encoding: 110 110 109
Width: 42
VWidth: 0
Flags: HMW
LayerCount: 2
Back
Fore
SplineSet
7 36 m 29
 11 36 l 25
 12 35 l 25
 12 28 l 25
 20 36 l 25
 28 36 l 25
 36 28 l 25
 36 1 l 25
 35 0 l 25
 31 0 l 25
 30 1 l 25
 30 26 l 25
 26 30 l 25
 22 30 l 25
 12 20 l 25
 12 1 l 25
 11 0 l 25
 7 0 l 25
 6 1 l 25
 6 35 l 25
 7 36 l 29
EndSplineSet
Validated: 1
EndChar

StartChar: o
Encoding: 111 111 110
Width: 42
VWidth: 0
Flags: HMW
LayerCount: 2
Back
Fore
SplineSet
16 30 m 29
 12 26 l 25
 12 10 l 25
 16 6 l 25
 26 6 l 25
 30 10 l 25
 30 26 l 25
 26 30 l 25
 16 30 l 29
14 36 m 25
 28 36 l 25
 36 28 l 25
 36 8 l 25
 28 0 l 25
 14 0 l 25
 6 8 l 25
 6 28 l 25
 14 36 l 25
EndSplineSet
Validated: 1
EndChar

StartChar: p
Encoding: 112 112 111
Width: 42
VWidth: 0
Flags: HMW
LayerCount: 2
Back
Fore
SplineSet
12 30 m 29
 12 6 l 25
 26 6 l 25
 30 10 l 25
 30 26 l 25
 26 30 l 25
 12 30 l 29
7 36 m 25
 28 36 l 25
 36 28 l 25
 36 8 l 25
 28 0 l 25
 12 0 l 25
 12 -17 l 25
 11 -18 l 25
 7 -18 l 25
 6 -17 l 25
 6 35 l 25
 7 36 l 25
EndSplineSet
Validated: 1
EndChar

StartChar: q
Encoding: 113 113 112
Width: 42
VWidth: 0
Flags: HMW
LayerCount: 2
Back
Fore
SplineSet
16 30 m 29
 12 26 l 25
 12 10 l 25
 16 6 l 25
 30 6 l 25
 30 30 l 25
 16 30 l 29
14 36 m 25
 35 36 l 25
 36 35 l 25
 36 -17 l 25
 35 -18 l 25
 31 -18 l 25
 30 -17 l 25
 30 0 l 25
 14 0 l 25
 6 8 l 25
 6 28 l 25
 14 36 l 25
EndSplineSet
Validated: 1
EndChar

StartChar: r
Encoding: 114 114 113
Width: 42
VWidth: 0
Flags: HMW
LayerCount: 2
Back
Fore
SplineSet
12 35 m 29
 12 28 l 25
 20 36 l 25
 28 36 l 25
 36 28 l 25
 36 25 l 25
 35 24 l 25
 32 24 l 25
 26 30 l 25
 22 30 l 25
 12 20 l 25
 12 1 l 25
 11 0 l 25
 7 0 l 25
 6 1 l 25
 6 35 l 25
 7 36 l 25
 11 36 l 25
 12 35 l 29
EndSplineSet
Validated: 1
EndChar

StartChar: s
Encoding: 115 115 114
Width: 42
VWidth: 0
Flags: MW
LayerCount: 2
Back
Fore
SplineSet
14 36 m 29
 35 36 l 25
 36 35 l 25
 36 31 l 25
 35 30 l 25
 16 30 l 25
 13 27 l 25
 16 24 l 25
 22 24 l 25
 36 10 l 25
 36 8 l 25
 28 0 l 25
 7 0 l 25
 6 1 l 25
 6 5 l 25
 7 6 l 25
 26 6 l 25
 29 9 l 25
 20 18 l 25
 14 18 l 25
 6 26 l 25
 6 28 l 25
 14 36 l 29
EndSplineSet
Validated: 1
EndChar

StartChar: t
Encoding: 116 116 115
Width: 42
VWidth: 0
Flags: HMW
LayerCount: 2
Back
Fore
SplineSet
18 47 m 29
 18 36 l 25
 35 36 l 25
 36 35 l 25
 36 31 l 25
 35 30 l 25
 18 30 l 25
 18 10 l 25
 22 6 l 25
 35 6 l 25
 36 5 l 25
 36 1 l 25
 35 0 l 25
 20 0 l 25
 12 8 l 25
 12 30 l 25
 7 30 l 25
 6 31 l 25
 6 35 l 25
 7 36 l 25
 12 36 l 25
 12 47 l 25
 13 48 l 25
 17 48 l 25
 18 47 l 29
EndSplineSet
Validated: 1
EndChar

StartChar: u
Encoding: 117 117 116
Width: 42
VWidth: 0
Flags: HMW
LayerCount: 2
Back
Fore
SplineSet
11 36 m 29
 12 35 l 25
 12 10 l 25
 16 6 l 25
 20 6 l 25
 30 16 l 25
 30 35 l 25
 31 36 l 25
 35 36 l 25
 36 35 l 25
 36 1 l 25
 35 0 l 25
 31 0 l 25
 30 1 l 25
 30 8 l 25
 22 0 l 25
 14 0 l 25
 6 8 l 25
 6 35 l 25
 7 36 l 25
 11 36 l 29
EndSplineSet
Validated: 1
EndChar

StartChar: v
Encoding: 118 118 117
Width: 42
VWidth: 0
Flags: HMW
LayerCount: 2
Back
Fore
SplineSet
9 36 m 25
 21 12 l 25
 33 36 l 25
 35 36 l 25
 36 35 l 1
 36 28 l 5
 22 0 l 1
 20 0 l 1
 6 28 l 1
 6 35 l 1
 7 36 l 25
 9 36 l 25
EndSplineSet
Validated: 1
EndChar

StartChar: w
Encoding: 119 119 118
Width: 42
VWidth: 0
Flags: HMW
LayerCount: 2
Back
Fore
SplineSet
11 36 m 29
 12 35 l 25
 12 10 l 25
 15 7 l 25
 18 10 l 25
 18 29 l 25
 19 30 l 25
 23 30 l 25
 24 29 l 25
 24 10 l 25
 27 7 l 25
 30 10 l 25
 30 35 l 25
 31 36 l 25
 35 36 l 25
 36 35 l 25
 36 8 l 25
 28 0 l 25
 26 0 l 25
 21 5 l 25
 16 0 l 25
 14 0 l 25
 6 8 l 25
 6 35 l 25
 7 36 l 25
 11 36 l 29
EndSplineSet
Validated: 1
EndChar

StartChar: x
Encoding: 120 120 119
Width: 42
VWidth: 0
Flags: HMW
LayerCount: 2
Back
Fore
SplineSet
10 36 m 25
 21 25 l 29
 32 36 l 25
 35 36 l 25
 36 35 l 25
 36 32 l 25
 24 20 l 25
 24 16 l 25
 36 4 l 25
 36 1 l 25
 35 0 l 25
 32 0 l 25
 21 11 l 25
 10 0 l 25
 7 0 l 25
 6 1 l 25
 6 4 l 25
 18 16 l 25
 18 20 l 25
 6 32 l 25
 6 35 l 25
 7 36 l 25
 10 36 l 25
EndSplineSet
Validated: 1
EndChar

StartChar: y
Encoding: 121 121 120
Width: 42
VWidth: 0
Flags: HMW
LayerCount: 2
Back
Fore
SplineSet
11 36 m 1
 21 6 l 1
 31 36 l 1
 35 36 l 1
 36 35 l 1
 36 33 l 1
 24 -3 l 1
 24 -10 l 1
 16 -18 l 25
 7 -18 l 25
 6 -17 l 25
 6 -13 l 25
 7 -12 l 25
 14 -12 l 25
 18 -8 l 25
 18 -3 l 1
 6 33 l 25
 6 35 l 1
 7 36 l 1
 11 36 l 1
EndSplineSet
Validated: 1
EndChar

StartChar: z
Encoding: 122 122 121
Width: 42
VWidth: 0
Flags: HMW
LayerCount: 2
Back
Fore
SplineSet
7 36 m 29
 35 36 l 25
 36 35 l 25
 36 32 l 25
 12 8 l 25
 12 6 l 25
 35 6 l 25
 36 5 l 25
 36 1 l 25
 35 0 l 25
 7 0 l 25
 6 1 l 25
 6 10 l 25
 26 30 l 25
 7 30 l 25
 6 31 l 25
 6 35 l 25
 7 36 l 29
EndSplineSet
Validated: 1
EndChar

StartChar: braceleft
Encoding: 123 123 122
Width: 42
VWidth: 0
Flags: HMW
LayerCount: 2
Back
Fore
SplineSet
20 54 m 29
 29 54 l 25
 30 53 l 25
 30 49 l 25
 29 48 l 25
 22 48 l 25
 18 44 l 25
 18 26 l 25
 13 21 l 25
 18 16 l 25
 18 -2 l 25
 22 -6 l 25
 29 -6 l 25
 30 -7 l 25
 30 -11 l 25
 29 -12 l 25
 20 -12 l 25
 12 -4 l 25
 12 14 l 25
 8 18 l 25
 1 18 l 25
 0 19 l 25
 0 23 l 25
 1 24 l 25
 8 24 l 25
 12 28 l 25
 12 46 l 25
 20 54 l 29
EndSplineSet
Validated: 1
EndChar

StartChar: bar
Encoding: 124 124 123
Width: 42
VWidth: 0
Flags: HMW
LayerCount: 2
Back
Fore
SplineSet
18 53 m 29
 19 54 l 25
 23 54 l 25
 24 53 l 25
 24 -11 l 25
 23 -12 l 25
 19 -12 l 25
 18 -11 l 25
 18 53 l 29
EndSplineSet
Validated: 1
EndChar

StartChar: asciitilde
Encoding: 126 126 125
Width: 42
VWidth: 0
Flags: HMW
LayerCount: 2
Back
Fore
SplineSet
0 22 m 29
 8 30 l 25
 16 30 l 25
 28 18 l 25
 32 18 l 25
 38 24 l 25
 41 24 l 25
 42 23 l 25
 42 20 l 25
 34 12 l 25
 26 12 l 25
 14 24 l 25
 10 24 l 25
 4 18 l 25
 1 18 l 25
 0 19 l 25
 0 22 l 29
EndSplineSet
Validated: 1
EndChar

StartChar: uni007F
Encoding: 127 127 126
Width: 42
VWidth: 0
Flags: HMW
LayerCount: 2
Back
Fore
SplineSet
18 18 m 1
 18 -3 l 25
 42 21 l 1
 42 -24 l 1
 0 -24 l 1
 0 18 l 1
 18 18 l 1
0 24 m 5
 0 60 l 1
 42 60 l 1
 42 21 l 1
 18 45 l 1
 18 24 l 1
 0 24 l 5
EndSplineSet
Validated: 5
EndChar

StartChar: quotesinglbase
Encoding: 130 8218 127
Width: 42
VWidth: 0
Flags: HMW
LayerCount: 2
Back
Fore
SplineSet
13 12 m 29
 23 12 l 25
 24 11 l 25
 24 -4 l 25
 16 -12 l 25
 13 -12 l 25
 12 -11 l 25
 12 -8 l 25
 18 -2 l 25
 18 6 l 25
 13 6 l 25
 12 7 l 25
 12 11 l 25
 13 12 l 29
EndSplineSet
Validated: 1
EndChar

StartChar: ellipsis
Encoding: 133 8230 129
Width: 42
VWidth: 0
Flags: HMW
LayerCount: 2
Back
Fore
SplineSet
30 11 m 29
 31 12 l 29
 35 12 l 29
 36 11 l 29
 36 1 l 29
 35 0 l 29
 31 0 l 29
 30 1 l 29
 30 11 l 29
18 11 m 25
 19 12 l 25
 23 12 l 25
 24 11 l 25
 24 1 l 25
 23 0 l 25
 19 0 l 25
 18 1 l 25
 18 11 l 25
6 11 m 25
 7 12 l 25
 11 12 l 25
 12 11 l 25
 12 1 l 25
 11 0 l 25
 7 0 l 25
 6 1 l 25
 6 11 l 25
EndSplineSet
Validated: 1
EndChar

StartChar: dagger
Encoding: 134 8224 130
Width: 42
VWidth: 0
Flags: HMW
LayerCount: 2
Back
Fore
SplineSet
18 53 m 29
 19 54 l 25
 23 54 l 25
 24 53 l 25
 24 42 l 25
 35 42 l 25
 36 41 l 25
 36 37 l 25
 35 36 l 25
 24 36 l 25
 24 1 l 25
 23 0 l 25
 19 0 l 25
 18 1 l 25
 18 36 l 25
 7 36 l 25
 6 37 l 25
 6 41 l 25
 7 42 l 25
 18 42 l 25
 18 53 l 29
EndSplineSet
Validated: 1
EndChar

StartChar: daggerdbl
Encoding: 135 8225 131
Width: 42
VWidth: 0
Flags: HMW
LayerCount: 2
Back
Fore
SplineSet
18 53 m 29
 19 54 l 25
 23 54 l 25
 24 53 l 25
 24 42 l 25
 35 42 l 25
 36 41 l 25
 36 37 l 25
 35 36 l 25
 24 36 l 25
 24 18 l 25
 35 18 l 25
 36 17 l 25
 36 13 l 25
 35 12 l 25
 24 12 l 25
 24 1 l 25
 23 0 l 25
 19 0 l 25
 18 1 l 25
 18 12 l 25
 7 12 l 25
 6 13 l 25
 6 17 l 25
 7 18 l 25
 18 18 l 25
 18 36 l 25
 7 36 l 25
 6 37 l 25
 6 41 l 25
 7 42 l 25
 18 42 l 25
 18 53 l 29
EndSplineSet
Validated: 1
EndChar

StartChar: Euro
Encoding: 136 8364 132
Width: 42
VWidth: 0
Flags: HMW
LayerCount: 2
Back
Fore
SplineSet
20 48 m 25
 35 48 l 25
 36 47 l 25
 36 43 l 25
 35 42 l 25
 22 42 l 25
 18 38 l 25
 18 36 l 25
 29 36 l 25
 30 35 l 25
 30 31 l 25
 29 30 l 25
 18 30 l 25
 18 24 l 25
 29 24 l 25
 30 23 l 25
 30 19 l 25
 29 18 l 25
 18 18 l 25
 18 10 l 25
 22 6 l 25
 35 6 l 25
 36 5 l 25
 36 1 l 1
 35 0 l 25
 20 0 l 1
 12 8 l 25
 12 18 l 25
 7 18 l 25
 6 19 l 25
 6 23 l 25
 7 24 l 25
 12 24 l 25
 12 30 l 25
 7 30 l 25
 6 31 l 25
 6 35 l 25
 7 36 l 25
 12 36 l 25
 12 40 l 25
 20 48 l 25
EndSplineSet
Validated: 1
EndChar

StartChar: perthousand
Encoding: 137 8240 133
Width: 42
VWidth: 0
Flags: HMW
LayerCount: 2
Back
Fore
SplineSet
33 18 m 1
 36 15 l 1
 36 9 l 1
 33 6 l 1
 27 6 l 1
 24 9 l 1
 24 15 l 1
 27 18 l 1
 33 18 l 1
15 12 m 1
 18 9 l 1
 18 3 l 1
 15 0 l 1
 9 0 l 1
 6 3 l 1
 6 9 l 1
 9 12 l 1
 15 12 l 1
6 18 m 25
 1 18 l 25
 0 19 l 25
 0 21 l 25
 30 36 l 25
 35 36 l 25
 36 35 l 25
 36 33 l 25
 6 18 l 25
15 48 m 1
 18 45 l 1
 18 39 l 1
 15 36 l 1
 9 36 l 1
 6 39 l 1
 6 45 l 1
 9 48 l 1
 15 48 l 1
EndSplineSet
Validated: 1
EndChar

StartChar: guilsinglleft
Encoding: 139 8249 134
Width: 42
VWidth: 0
Flags: HMW
LayerCount: 2
Back
Fore
SplineSet
11 21 m 29
 26 36 l 25
 29 36 l 25
 30 35 l 25
 30 32 l 25
 19 21 l 25
 30 10 l 25
 30 7 l 25
 29 6 l 25
 26 6 l 25
 11 21 l 29
EndSplineSet
Validated: 1
EndChar

StartChar: bullet
Encoding: 149 8226 139
Width: 42
VWidth: 0
Flags: HMW
LayerCount: 2
Back
Fore
SplineSet
14 6 m 29
 6 14 l 25
 6 28 l 25
 14 36 l 25
 28 36 l 25
 36 28 l 25
 36 14 l 25
 28 6 l 25
 14 6 l 29
EndSplineSet
Validated: 1
EndChar

StartChar: endash
Encoding: 150 8211 140
Width: 42
VWidth: 0
Flags: HMW
LayerCount: 2
Back
Fore
SplineSet
7 24 m 25
 29 24 l 29
 30 23 l 29
 30 19 l 29
 29 18 l 29
 7 18 l 25
 6 19 l 25
 6 23 l 25
 7 24 l 25
EndSplineSet
Validated: 1
EndChar

StartChar: emdash
Encoding: 151 8212 141
Width: 42
VWidth: 0
Flags: HMW
LayerCount: 2
Back
Fore
SplineSet
1 24 m 29
 41 24 l 25
 42 23 l 25
 42 19 l 25
 41 18 l 25
 1 18 l 25
 0 19 l 25
 0 23 l 25
 1 24 l 29
EndSplineSet
Validated: 1
EndChar

StartChar: trademark
Encoding: 153 8482 142
Width: 42
VWidth: 0
Flags: HMW
LayerCount: 2
Back
Fore
SplineSet
24 31 m 29
 24 47 l 25
 25 48 l 25
 31 48 l 25
 33 46 l 25
 35 48 l 25
 41 48 l 25
 42 47 l 25
 42 31 l 25
 41 30 l 25
 37 30 l 25
 36 31 l 25
 36 38 l 25
 33 35 l 25
 30 38 l 25
 30 31 l 25
 29 30 l 25
 25 30 l 25
 24 31 l 29
7 30 m 25
 6 31 l 25
 6 42 l 25
 1 42 l 25
 0 43 l 25
 0 47 l 25
 1 48 l 25
 17 48 l 25
 18 47 l 25
 18 43 l 25
 17 42 l 25
 12 42 l 25
 12 31 l 25
 11 30 l 25
 7 30 l 25
EndSplineSet
Validated: 1
EndChar

StartChar: currency
Encoding: 164 164 144
Width: 42
VWidth: 0
Flags: HMW
LayerCount: 2
Back
Fore
SplineSet
18 24 m 29
 18 18 l 25
 24 18 l 25
 24 24 l 25
 18 24 l 29
10 36 m 25
 16 30 l 25
 26 30 l 25
 32 36 l 25
 35 36 l 25
 36 35 l 25
 36 32 l 25
 30 26 l 25
 30 16 l 25
 36 10 l 25
 36 7 l 25
 35 6 l 25
 32 6 l 25
 26 12 l 25
 16 12 l 25
 10 6 l 25
 7 6 l 25
 6 7 l 25
 6 10 l 25
 12 16 l 25
 12 26 l 25
 6 32 l 25
 6 35 l 25
 7 36 l 25
 10 36 l 25
EndSplineSet
Validated: 1
EndChar

StartChar: brokenbar
Encoding: 166 166 145
Width: 42
VWidth: 0
Flags: HMW
LayerCount: 2
Back
Fore
SplineSet
19 -12 m 5
 18 -11 l 29
 18 11 l 29
 19 12 l 29
 23 12 l 29
 24 11 l 29
 24 -11 l 5
 23 -12 l 29
 19 -12 l 5
19 30 m 1
 18 31 l 25
 18 53 l 25
 19 54 l 25
 23 54 l 25
 24 53 l 25
 24 31 l 1
 23 30 l 25
 19 30 l 1
EndSplineSet
Validated: 1
EndChar

StartChar: section
Encoding: 167 167 146
Width: 42
VWidth: 0
Flags: HMW
LayerCount: 2
Back
Fore
SplineSet
16 30 m 29
 12 26 l 25
 12 22 l 25
 22 12 l 25
 26 12 l 25
 30 16 l 25
 30 20 l 25
 20 30 l 25
 16 30 l 29
36 46 m 25
 36 43 l 25
 35 42 l 25
 32 42 l 25
 26 48 l 25
 16 48 l 25
 12 44 l 25
 12 40 l 25
 16 36 l 25
 22 36 l 25
 36 22 l 25
 36 14 l 25
 31 9 l 25
 36 4 l 25
 36 -4 l 25
 28 -12 l 25
 14 -12 l 25
 6 -4 l 25
 6 -1 l 25
 7 0 l 25
 10 0 l 25
 16 -6 l 25
 26 -6 l 25
 30 -2 l 25
 30 2 l 25
 26 6 l 25
 20 6 l 25
 6 20 l 25
 6 28 l 25
 11 33 l 25
 6 38 l 25
 6 46 l 25
 14 54 l 25
 28 54 l 25
 36 46 l 25
EndSplineSet
Validated: 1
EndChar

StartChar: afii10023
Encoding: 168 1025 147
Width: 42
VWidth: 0
Flags: HMW
LayerCount: 2
Back
Fore
SplineSet
24 59 m 29
 25 60 l 29
 29 60 l 29
 30 59 l 29
 30 55 l 29
 29 54 l 29
 25 54 l 29
 24 55 l 29
 24 59 l 29
12 59 m 25
 13 60 l 25
 17 60 l 25
 18 59 l 25
 18 55 l 25
 17 54 l 25
 13 54 l 25
 12 55 l 25
 12 59 l 25
EndSplineSet
Refer: 168 1045 N 1 0 0 1 0 0 2
Validated: 1
EndChar

StartChar: copyright
Encoding: 169 169 148
Width: 42
VWidth: 0
Flags: HMW
LayerCount: 2
Back
Fore
SplineSet
13 30 m 29
 29 30 l 25
 30 29 l 25
 30 25 l 25
 29 24 l 25
 18 24 l 25
 18 18 l 25
 29 18 l 25
 30 17 l 25
 30 13 l 25
 29 12 l 25
 13 12 l 25
 12 13 l 25
 12 29 l 25
 13 30 l 29
16 36 m 25
 6 26 l 25
 6 16 l 25
 16 6 l 25
 26 6 l 25
 36 16 l 25
 36 26 l 25
 26 36 l 25
 16 36 l 25
14 42 m 25
 28 42 l 25
 42 28 l 25
 42 14 l 25
 28 0 l 25
 14 0 l 25
 0 14 l 25
 0 28 l 25
 14 42 l 25
EndSplineSet
Validated: 1
EndChar

StartChar: logicalnot
Encoding: 172 172 150
Width: 42
VWidth: 0
Flags: HMW
LayerCount: 2
Back
Fore
SplineSet
7 30 m 29
 35 30 l 25
 36 29 l 25
 36 13 l 25
 35 12 l 25
 31 12 l 25
 30 13 l 25
 30 24 l 25
 7 24 l 25
 6 25 l 25
 6 29 l 25
 7 30 l 29
EndSplineSet
Validated: 1
EndChar

StartChar: uni00AD
Encoding: 173 173 151
Width: 42
VWidth: 0
Flags: HMW
LayerCount: 2
Back
Fore
SplineSet
12 12 m 29
 18 12 l 25
 18 0 l 25
 24 0 l 25
 24 12 l 25
 30 12 l 25
 30 -18 l 25
 24 -18 l 25
 24 -6 l 25
 18 -6 l 25
 18 -18 l 25
 12 -18 l 25
 12 12 l 29
6 24 m 25
 36 24 l 25
 36 18 l 25
 6 18 l 25
 6 24 l 25
12 60 m 25
 30 60 l 25
 30 54 l 25
 18 54 l 25
 18 48 l 25
 30 48 l 25
 30 30 l 25
 12 30 l 25
 12 36 l 25
 24 36 l 25
 24 42 l 25
 12 42 l 25
 12 60 l 25
EndSplineSet
Validated: 1
EndChar

StartChar: registered
Encoding: 174 174 152
Width: 42
VWidth: 0
Flags: HMW
LayerCount: 2
Back
Fore
SplineSet
18 23 m 1
 20 23 l 1
 22 25 l 5
 18 25 l 1
 18 23 l 1
13 30 m 25
 29 30 l 25
 30 29 l 25
 30 26 l 25
 25 21 l 25
 30 16 l 25
 30 13 l 25
 29 12 l 25
 26 12 l 25
 20 18 l 25
 18 18 l 25
 18 13 l 25
 17 12 l 25
 13 12 l 25
 12 13 l 25
 12 29 l 25
 13 30 l 25
16 36 m 25
 6 26 l 25
 6 16 l 25
 16 6 l 25
 26 6 l 25
 36 16 l 25
 36 26 l 25
 26 36 l 25
 16 36 l 25
14 42 m 25
 28 42 l 25
 42 28 l 25
 42 14 l 25
 28 0 l 25
 14 0 l 25
 0 14 l 25
 0 28 l 25
 14 42 l 25
EndSplineSet
Validated: 1
EndChar

StartChar: afii10056
Encoding: 175 1031 153
Width: 42
VWidth: 0
Flags: HMW
LayerCount: 2
Back
Fore
SplineSet
24 59 m 29
 25 60 l 29
 29 60 l 29
 30 59 l 29
 30 55 l 29
 29 54 l 29
 25 54 l 29
 24 55 l 29
 24 59 l 29
12 59 m 25
 13 60 l 25
 17 60 l 25
 18 59 l 25
 18 55 l 25
 17 54 l 25
 13 54 l 25
 12 55 l 25
 12 59 l 25
EndSplineSet
Refer: 72 73 N 1 0 0 1 0 0 2
Validated: 1
EndChar

StartChar: degree
Encoding: 176 176 154
Width: 42
VWidth: 0
Flags: HMW
LayerCount: 2
Back
Fore
SplineSet
18 48 m 29
 18 42 l 25
 24 42 l 25
 24 48 l 25
 18 48 l 29
14 54 m 25
 28 54 l 25
 30 52 l 25
 30 38 l 25
 28 36 l 25
 14 36 l 25
 12 38 l 25
 12 52 l 25
 14 54 l 25
EndSplineSet
Validated: 1
EndChar

StartChar: plusminus
Encoding: 177 177 155
Width: 42
VWidth: 0
Flags: HMW
LayerCount: 2
Back
Fore
SplineSet
24 7 m 29
 23 6 l 25
 35 6 l 25
 36 5 l 25
 36 1 l 25
 35 0 l 25
 7 0 l 25
 6 1 l 25
 6 5 l 25
 7 6 l 25
 19 6 l 25
 18 7 l 25
 18 18 l 1
 7 18 l 25
 6 19 l 25
 6 23 l 25
 7 24 l 25
 18 24 l 1
 18 35 l 25
 19 36 l 25
 23 36 l 25
 24 35 l 25
 24 24 l 1
 35 24 l 25
 36 23 l 25
 36 19 l 25
 35 18 l 25
 24 18 l 1
 24 7 l 29
EndSplineSet
Validated: 1
EndChar

StartChar: uni00B5
Encoding: 181 181 156
Width: 42
VWidth: 0
Flags: HMW
LayerCount: 2
Back
Fore
SplineSet
7 36 m 29
 11 36 l 25
 12 35 l 25
 12 16 l 25
 22 6 l 25
 26 6 l 25
 30 10 l 25
 30 35 l 25
 31 36 l 25
 35 36 l 25
 36 35 l 25
 36 10 l 25
 42 4 l 25
 42 1 l 25
 41 0 l 25
 38 0 l 25
 33 5 l 25
 28 0 l 25
 20 0 l 25
 12 8 l 25
 12 -17 l 25
 11 -18 l 25
 7 -18 l 25
 6 -17 l 25
 6 35 l 25
 7 36 l 29
EndSplineSet
Validated: 1
EndChar

StartChar: paragraph
Encoding: 182 182 157
Width: 42
VWidth: 0
Flags: HMW
LayerCount: 2
Back
Fore
SplineSet
6 40 m 29
 14 48 l 25
 41 48 l 25
 42 47 l 25
 42 43 l 25
 41 42 l 25
 36 42 l 25
 36 6 l 25
 41 6 l 25
 42 5 l 25
 42 1 l 25
 41 0 l 25
 31 0 l 25
 30 1 l 25
 30 42 l 25
 24 42 l 25
 24 1 l 25
 23 0 l 25
 13 0 l 25
 12 1 l 25
 12 5 l 25
 13 6 l 25
 18 6 l 25
 18 18 l 25
 14 18 l 25
 6 26 l 25
 6 40 l 29
EndSplineSet
Validated: 1
EndChar

StartChar: periodcentered
Encoding: 183 183 158
Width: 42
VWidth: 0
Flags: HMW
LayerCount: 2
Back
Fore
SplineSet
18 23 m 29
 19 24 l 25
 23 24 l 25
 24 23 l 25
 24 13 l 25
 23 12 l 25
 19 12 l 25
 18 13 l 25
 18 23 l 29
EndSplineSet
Validated: 1
EndChar

StartChar: afii10071
Encoding: 184 1105 159
Width: 42
VWidth: 0
Flags: HMW
LayerCount: 2
Back
Fore
SplineSet
24 43 m 29
 24 53 l 29
 25 54 l 29
 29 54 l 29
 30 53 l 29
 30 43 l 29
 29 42 l 29
 25 42 l 29
 24 43 l 29
12 43 m 25
 12 53 l 25
 13 54 l 25
 17 54 l 25
 18 53 l 25
 18 43 l 25
 17 42 l 25
 13 42 l 25
 12 43 l 25
EndSplineSet
Refer: 200 1077 N 1 0 0 1 0 0 2
Validated: 1
EndChar

StartChar: afii61352
Encoding: 185 8470 160
Width: 42
VWidth: 0
Flags: HMW
LayerCount: 2
Back
Fore
SplineSet
36 37 m 29
 35 36 l 25
 36 35 l 25
 37 36 l 25
 36 37 l 29
6 47 m 25
 7 48 l 25
 11 48 l 25
 12 47 l 25
 12 28 l 25
 24 16 l 25
 24 47 l 25
 25 48 l 25
 29 48 l 25
 30 47 l 25
 30 40 l 25
 32 42 l 25
 40 42 l 25
 42 40 l 25
 42 32 l 25
 40 30 l 25
 32 30 l 25
 30 32 l 25
 30 23 l 25
 31 24 l 25
 41 24 l 25
 42 23 l 25
 42 19 l 25
 41 18 l 25
 31 18 l 25
 30 19 l 25
 30 1 l 25
 29 0 l 25
 25 0 l 25
 24 1 l 25
 24 8 l 25
 12 20 l 25
 12 1 l 25
 11 0 l 25
 7 0 l 25
 6 1 l 25
 6 47 l 25
EndSplineSet
Validated: 1
EndChar

StartChar: afii10104
Encoding: 191 1111 162
Width: 42
VWidth: 0
Flags: HMW
LayerCount: 2
Back
Fore
SplineSet
25 54 m 29
 29 54 l 29
 30 53 l 29
 30 43 l 29
 29 42 l 29
 25 42 l 29
 24 43 l 29
 24 53 l 29
 25 54 l 29
23 36 m 25
 24 35 l 25
 24 1 l 25
 23 0 l 25
 19 0 l 25
 18 1 l 25
 18 30 l 25
 7 30 l 25
 6 31 l 25
 6 35 l 25
 7 36 l 25
 23 36 l 25
13 54 m 25
 17 54 l 25
 18 53 l 25
 18 43 l 25
 17 42 l 25
 13 42 l 25
 12 43 l 25
 12 53 l 25
 13 54 l 25
EndSplineSet
Validated: 1
EndChar

StartChar: afii10018
Encoding: 193 1041 164
Width: 42
VWidth: 0
Flags: HMW
LayerCount: 2
Back
Fore
SplineSet
12 24 m 29
 12 6 l 25
 26 6 l 25
 30 10 l 25
 30 20 l 25
 26 24 l 25
 12 24 l 29
7 48 m 25
 35 48 l 25
 36 47 l 25
 36 43 l 25
 35 42 l 25
 12 42 l 25
 12 30 l 25
 28 30 l 25
 36 22 l 25
 36 8 l 25
 28 0 l 25
 7 0 l 25
 6 1 l 25
 6 47 l 25
 7 48 l 25
EndSplineSet
Validated: 1
EndChar

StartChar: afii10020
Encoding: 195 1043 166
Width: 42
VWidth: 0
Flags: HMW
LayerCount: 2
Back
Fore
SplineSet
7 0 m 29
 6 1 l 25
 6 47 l 25
 7 48 l 25
 35 48 l 25
 36 47 l 25
 36 43 l 25
 35 42 l 25
 12 42 l 25
 12 1 l 25
 11 0 l 25
 7 0 l 29
EndSplineSet
Validated: 1
EndChar

StartChar: afii10021
Encoding: 196 1044 167
Width: 42
VWidth: 0
Flags: HMW
LayerCount: 2
Back
Fore
SplineSet
9 6 m 1
 30 6 l 1
 30 42 l 25
 18 42 l 1
 18 24 l 1
 9 6 l 1
1 -6 m 25
 0 -5 l 25
 0 5 l 25
 1 6 l 25
 3 6 l 25
 12 24 l 25
 12 47 l 25
 13 48 l 25
 35 48 l 25
 36 47 l 25
 36 6 l 25
 41 6 l 25
 42 5 l 25
 42 -5 l 25
 41 -6 l 25
 37 -6 l 25
 36 -5 l 25
 36 0 l 25
 6 0 l 25
 6 -5 l 25
 5 -6 l 25
 1 -6 l 25
EndSplineSet
Validated: 1
EndChar

StartChar: afii10024
Encoding: 198 1046 169
Width: 42
VWidth: 0
Flags: HMW
LayerCount: 2
Back
Fore
SplineSet
5 48 m 25
 6 47 l 25
 6 40 l 25
 18 28 l 25
 18 47 l 25
 19 48 l 25
 23 48 l 25
 24 47 l 25
 24 28 l 25
 36 40 l 25
 36 47 l 25
 37 48 l 25
 41 48 l 25
 42 47 l 25
 42 38 l 25
 28 24 l 25
 42 10 l 1
 42 1 l 25
 41 0 l 25
 37 0 l 25
 36 1 l 25
 36 8 l 25
 24 20 l 25
 24 1 l 25
 23 0 l 25
 19 0 l 25
 18 1 l 25
 18 20 l 25
 6 8 l 25
 6 1 l 25
 5 0 l 25
 1 0 l 25
 0 1 l 25
 0 10 l 25
 14 24 l 25
 0 38 l 25
 0 47 l 25
 1 48 l 25
 5 48 l 25
EndSplineSet
Validated: 1
EndChar

StartChar: afii10025
Encoding: 199 1047 170
Width: 42
VWidth: 0
Flags: HMW
LayerCount: 2
Back
Fore
SplineSet
6 40 m 29
 14 48 l 25
 28 48 l 25
 36 40 l 25
 36 32 l 25
 31 27 l 25
 36 22 l 25
 36 8 l 25
 28 0 l 25
 7 0 l 25
 6 1 l 25
 6 5 l 25
 7 6 l 25
 26 6 l 25
 30 10 l 25
 30 20 l 25
 26 24 l 25
 19 24 l 25
 18 25 l 25
 18 29 l 25
 19 30 l 25
 26 30 l 25
 30 34 l 25
 30 38 l 25
 26 42 l 25
 16 42 l 25
 10 36 l 25
 7 36 l 25
 6 37 l 25
 6 40 l 29
EndSplineSet
Validated: 1
EndChar

StartChar: afii10026
Encoding: 200 1048 171
Width: 42
VWidth: 0
Flags: HMW
LayerCount: 2
Back
Fore
SplineSet
11 48 m 29
 12 47 l 25
 12 16 l 25
 30 34 l 25
 30 47 l 25
 31 48 l 25
 35 48 l 25
 36 47 l 25
 36 1 l 25
 35 0 l 25
 31 0 l 25
 30 1 l 25
 30 26 l 25
 12 8 l 25
 12 1 l 25
 11 0 l 25
 7 0 l 25
 6 1 l 25
 6 47 l 25
 7 48 l 25
 11 48 l 29
EndSplineSet
Validated: 1
EndChar

StartChar: afii10027
Encoding: 201 1049 172
Width: 42
VWidth: 0
Flags: HMW
LayerCount: 2
Back
Fore
SplineSet
19 42 m 29
 18 43 l 25
 18 59 l 25
 19 60 l 25
 29 60 l 25
 30 59 l 25
 30 55 l 25
 29 54 l 25
 24 54 l 25
 24 43 l 25
 23 42 l 25
 19 42 l 29
EndSplineSet
Refer: 171 1048 N 1 0 0 1 0 0 2
Validated: 1
EndChar

StartChar: afii10029
Encoding: 203 1051 174
Width: 42
VWidth: 0
Flags: HMW
LayerCount: 2
Back
Fore
SplineSet
1 0 m 29
 0 1 l 25
 0 4 l 25
 6 10 l 25
 6 40 l 25
 14 48 l 25
 35 48 l 25
 36 47 l 25
 36 1 l 25
 35 0 l 25
 31 0 l 25
 30 1 l 25
 30 42 l 25
 16 42 l 25
 12 38 l 25
 12 8 l 25
 4 0 l 25
 1 0 l 29
EndSplineSet
Validated: 1
EndChar

StartChar: afii10033
Encoding: 207 1055 178
Width: 42
VWidth: 0
Flags: HMW
LayerCount: 2
Back
Fore
SplineSet
7 0 m 29
 6 1 l 25
 6 47 l 25
 7 48 l 25
 35 48 l 25
 36 47 l 25
 36 1 l 25
 35 0 l 25
 31 0 l 25
 30 1 l 25
 30 42 l 25
 12 42 l 25
 12 1 l 25
 11 0 l 25
 7 0 l 29
EndSplineSet
Validated: 1
EndChar

StartChar: afii10037
Encoding: 211 1059 182
Width: 42
VWidth: 0
Flags: HMW
LayerCount: 2
Back
Fore
SplineSet
6 48 m 1
 21 18 l 25
 36 48 l 1
 41 48 l 1
 42 47 l 1
 24 11 l 25
 24 8 l 1
 16 0 l 25
 7 0 l 25
 6 1 l 25
 6 5 l 25
 7 6 l 1
 14 6 l 1
 18 10 l 1
 18 11 l 1
 0 47 l 1
 1 48 l 1
 6 48 l 1
EndSplineSet
Validated: 1
EndChar

StartChar: afii10038
Encoding: 212 1060 183
Width: 42
VWidth: 0
Flags: HMW
LayerCount: 2
Back
Fore
SplineSet
24 36 m 29
 24 12 l 25
 32 12 l 25
 36 16 l 25
 36 32 l 25
 32 36 l 25
 24 36 l 29
18 36 m 25
 10 36 l 25
 6 32 l 25
 6 16 l 25
 10 12 l 25
 18 12 l 25
 18 36 l 25
18 47 m 25
 19 48 l 25
 23 48 l 25
 24 47 l 25
 24 42 l 25
 34 42 l 25
 42 34 l 25
 42 14 l 25
 34 6 l 25
 24 6 l 25
 24 1 l 25
 23 0 l 25
 19 0 l 25
 18 1 l 25
 18 6 l 25
 8 6 l 25
 0 14 l 25
 0 34 l 25
 8 42 l 25
 18 42 l 25
 18 47 l 25
EndSplineSet
Validated: 1
EndChar

StartChar: afii10040
Encoding: 214 1062 185
Width: 42
VWidth: 0
Flags: HMW
LayerCount: 2
Back
Fore
SplineSet
11 48 m 29
 12 47 l 25
 12 6 l 25
 30 6 l 25
 30 47 l 25
 31 48 l 25
 35 48 l 25
 36 47 l 25
 36 6 l 25
 41 6 l 25
 42 5 l 25
 42 -11 l 25
 41 -12 l 25
 37 -12 l 25
 36 -11 l 25
 36 0 l 25
 7 0 l 25
 6 1 l 25
 6 47 l 25
 7 48 l 25
 11 48 l 29
EndSplineSet
Validated: 1
EndChar

StartChar: afii10041
Encoding: 215 1063 186
Width: 42
VWidth: 0
Flags: HMW
LayerCount: 2
Back
Fore
SplineSet
11 48 m 29
 12 47 l 25
 12 24 l 25
 30 24 l 25
 30 47 l 25
 31 48 l 25
 35 48 l 25
 36 47 l 25
 36 1 l 25
 35 0 l 25
 31 0 l 25
 30 1 l 25
 30 18 l 25
 7 18 l 25
 6 19 l 25
 6 47 l 25
 7 48 l 25
 11 48 l 29
EndSplineSet
Validated: 1
EndChar

StartChar: afii10042
Encoding: 216 1064 187
Width: 42
VWidth: 0
Flags: HMW
LayerCount: 2
Back
Fore
SplineSet
11 48 m 29
 12 47 l 25
 12 6 l 25
 18 6 l 25
 18 41 l 25
 19 42 l 25
 23 42 l 25
 24 41 l 25
 24 6 l 25
 30 6 l 25
 30 47 l 25
 31 48 l 25
 35 48 l 25
 36 47 l 25
 36 1 l 25
 35 0 l 25
 7 0 l 25
 6 1 l 25
 6 47 l 25
 7 48 l 25
 11 48 l 29
EndSplineSet
Validated: 1
EndChar

StartChar: afii10043
Encoding: 217 1065 188
Width: 42
VWidth: 0
Flags: HMW
LayerCount: 2
Back
Fore
SplineSet
11 48 m 29
 12 47 l 25
 12 6 l 25
 18 6 l 25
 18 41 l 25
 19 42 l 25
 23 42 l 25
 24 41 l 25
 24 6 l 25
 30 6 l 25
 30 47 l 25
 31 48 l 25
 35 48 l 25
 36 47 l 25
 36 6 l 25
 41 6 l 25
 42 5 l 25
 42 -11 l 25
 41 -12 l 25
 37 -12 l 25
 36 -11 l 25
 36 0 l 25
 7 0 l 25
 6 1 l 25
 6 47 l 25
 7 48 l 25
 11 48 l 29
EndSplineSet
Validated: 1
EndChar

StartChar: afii10044
Encoding: 218 1066 189
Width: 42
VWidth: 0
Flags: HMW
LayerCount: 2
Back
Fore
SplineSet
12 24 m 29
 12 6 l 25
 26 6 l 25
 30 10 l 25
 30 20 l 25
 26 24 l 25
 12 24 l 29
1 48 m 25
 17 48 l 25
 18 47 l 25
 18 38 l 25
 12 32 l 25
 12 30 l 25
 28 30 l 25
 36 22 l 25
 36 8 l 25
 28 0 l 25
 7 0 l 25
 6 1 l 25
 6 34 l 25
 12 40 l 25
 12 42 l 25
 1 42 l 25
 0 43 l 25
 0 47 l 25
 1 48 l 25
EndSplineSet
Validated: 1
EndChar

StartChar: afii10045
Encoding: 219 1067 190
Width: 42
VWidth: 0
Flags: HMW
LayerCount: 2
Back
Fore
SplineSet
30 47 m 29
 31 48 l 25
 35 48 l 25
 36 47 l 25
 36 1 l 25
 35 0 l 25
 31 0 l 25
 30 1 l 25
 30 47 l 29
12 24 m 25
 12 6 l 25
 14 6 l 25
 18 10 l 25
 18 20 l 25
 14 24 l 25
 12 24 l 25
7 48 m 25
 11 48 l 25
 12 47 l 25
 12 30 l 25
 16 30 l 25
 24 22 l 25
 24 8 l 25
 16 0 l 25
 7 0 l 25
 6 1 l 25
 6 47 l 25
 7 48 l 25
EndSplineSet
Validated: 1
EndChar

StartChar: afii10046
Encoding: 220 1068 191
Width: 42
VWidth: 0
Flags: HMW
LayerCount: 2
Back
Fore
SplineSet
12 24 m 29
 12 6 l 25
 26 6 l 25
 30 10 l 25
 30 20 l 25
 26 24 l 25
 12 24 l 29
11 48 m 25
 12 47 l 25
 12 30 l 25
 28 30 l 25
 36 22 l 25
 36 8 l 25
 28 0 l 25
 7 0 l 25
 6 1 l 25
 6 47 l 25
 7 48 l 25
 11 48 l 25
EndSplineSet
Validated: 1
EndChar

StartChar: afii10047
Encoding: 221 1069 192
Width: 42
VWidth: 0
Flags: HMW
LayerCount: 2
Back
Fore
SplineSet
6 40 m 29
 14 48 l 25
 28 48 l 25
 36 40 l 25
 36 8 l 25
 28 0 l 25
 14 0 l 25
 6 8 l 25
 6 11 l 25
 7 12 l 25
 10 12 l 25
 16 6 l 25
 26 6 l 25
 30 10 l 25
 30 24 l 25
 13 24 l 25
 12 25 l 25
 12 29 l 25
 13 30 l 25
 30 30 l 25
 30 38 l 25
 26 42 l 25
 16 42 l 25
 10 36 l 25
 7 36 l 25
 6 37 l 25
 6 40 l 29
EndSplineSet
Validated: 1
EndChar

StartChar: afii10048
Encoding: 222 1070 193
Width: 42
VWidth: 0
Flags: HMW
LayerCount: 2
Back
Fore
SplineSet
28 42 m 29
 24 38 l 25
 24 10 l 25
 28 6 l 25
 32 6 l 25
 36 10 l 25
 36 38 l 25
 32 42 l 25
 28 42 l 29
7 48 m 25
 11 48 l 25
 12 47 l 25
 12 30 l 25
 18 30 l 25
 18 40 l 25
 26 48 l 25
 34 48 l 25
 42 40 l 25
 42 8 l 25
 34 0 l 25
 26 0 l 25
 18 8 l 25
 18 24 l 25
 12 24 l 25
 12 1 l 25
 11 0 l 25
 7 0 l 25
 6 1 l 25
 6 47 l 25
 7 48 l 25
EndSplineSet
Validated: 1
EndChar

StartChar: afii10049
Encoding: 223 1071 194
Width: 42
VWidth: 0
Flags: HMW
LayerCount: 2
Back
Fore
SplineSet
16 42 m 29
 12 38 l 25
 12 28 l 25
 16 24 l 25
 30 24 l 25
 30 42 l 25
 16 42 l 29
14 48 m 25
 35 48 l 25
 36 47 l 25
 36 1 l 25
 35 0 l 25
 31 0 l 25
 30 1 l 25
 30 18 l 25
 22 18 l 25
 12 8 l 25
 12 1 l 25
 11 0 l 25
 7 0 l 25
 6 1 l 25
 6 10 l 25
 14 18 l 25
 6 26 l 25
 6 40 l 25
 14 48 l 25
EndSplineSet
Validated: 1
EndChar

StartChar: afii10066
Encoding: 225 1073 196
Width: 42
VWidth: 0
Flags: HMW
LayerCount: 2
Back
Fore
SplineSet
12 10 m 29
 16 6 l 25
 26 6 l 25
 30 10 l 25
 30 26 l 25
 26 30 l 25
 22 30 l 25
 12 20 l 25
 12 10 l 29
14 0 m 25
 6 8 l 25
 6 40 l 25
 20 54 l 25
 29 54 l 25
 30 53 l 25
 30 49 l 25
 29 48 l 25
 22 48 l 25
 12 38 l 25
 12 28 l 25
 20 36 l 25
 28 36 l 25
 36 28 l 25
 36 8 l 25
 28 0 l 25
 14 0 l 25
EndSplineSet
Validated: 1
EndChar

StartChar: afii10067
Encoding: 226 1074 197
Width: 42
VWidth: 0
Flags: HMW
LayerCount: 2
Back
Fore
SplineSet
12 18 m 29
 12 10 l 25
 16 6 l 25
 26 6 l 25
 30 10 l 25
 30 14 l 25
 26 18 l 25
 12 18 l 29
16 36 m 25
 12 32 l 25
 12 24 l 25
 24 24 l 25
 24 32 l 25
 20 36 l 25
 16 36 l 25
6 34 m 25
 14 42 l 25
 22 42 l 25
 30 34 l 25
 30 22 l 25
 36 16 l 25
 36 8 l 25
 28 0 l 25
 14 0 l 25
 6 8 l 25
 6 34 l 25
EndSplineSet
Validated: 1
EndChar

StartChar: afii10068
Encoding: 227 1075 198
Width: 42
VWidth: 0
Flags: HMW
LayerCount: 2
Back
Fore
SplineSet
7 36 m 29
 35 36 l 25
 36 35 l 25
 36 31 l 25
 35 30 l 25
 12 30 l 25
 12 1 l 25
 11 0 l 25
 7 0 l 25
 6 1 l 25
 6 35 l 25
 7 36 l 29
EndSplineSet
Validated: 1
EndChar

StartChar: afii10069
Encoding: 228 1076 199
Width: 42
VWidth: 0
Flags: HMW
LayerCount: 2
Back
Fore
SplineSet
16 30 m 29
 12 26 l 25
 12 10 l 25
 16 6 l 25
 26 6 l 25
 30 10 l 25
 30 30 l 25
 16 30 l 29
19 54 m 25
 28 54 l 25
 36 46 l 25
 36 8 l 25
 28 0 l 25
 14 0 l 25
 6 8 l 25
 6 28 l 25
 14 36 l 25
 30 36 l 25
 30 44 l 25
 26 48 l 25
 19 48 l 25
 18 49 l 25
 18 53 l 25
 19 54 l 25
EndSplineSet
Validated: 1
EndChar

StartChar: afii10072
Encoding: 230 1078 201
Width: 42
VWidth: 0
Flags: HMW
LayerCount: 2
Back
Fore
SplineSet
10 36 m 1
 18 20 l 9
 18 35 l 1
 19 36 l 25
 23 36 l 25
 24 35 l 1
 24 20 l 1
 32 36 l 1
 35 36 l 1
 36 35 l 1
 36 30 l 1
 30 18 l 9
 36 6 l 25
 36 1 l 25
 35 0 l 25
 32 0 l 25
 24 16 l 25
 24 1 l 25
 23 0 l 25
 19 0 l 25
 18 1 l 1
 18 16 l 25
 10 0 l 1
 7 0 l 25
 6 1 l 25
 6 6 l 25
 12 18 l 25
 6 30 l 25
 6 35 l 25
 7 36 l 25
 10 36 l 1
EndSplineSet
Validated: 1
EndChar

StartChar: afii10073
Encoding: 231 1079 202
Width: 42
VWidth: 0
Flags: HMW
LayerCount: 2
Back
Fore
SplineSet
6 28 m 29
 14 36 l 25
 28 36 l 25
 36 28 l 25
 36 26 l 25
 31 21 l 25
 36 16 l 25
 36 8 l 25
 28 0 l 25
 7 0 l 25
 6 1 l 25
 6 5 l 25
 7 6 l 25
 26 6 l 25
 30 10 l 25
 30 14 l 25
 26 18 l 25
 19 18 l 25
 18 19 l 25
 18 23 l 25
 19 24 l 25
 26 24 l 25
 29 27 l 25
 26 30 l 25
 16 30 l 25
 10 24 l 25
 7 24 l 25
 6 25 l 25
 6 28 l 29
EndSplineSet
Validated: 1
EndChar

StartChar: afii10074
Encoding: 232 1080 203
Width: 42
VWidth: 0
Flags: HMW
LayerCount: 2
Back
Fore
SplineSet
12 35 m 29
 12 10 l 25
 30 28 l 25
 30 35 l 25
 31 36 l 25
 35 36 l 25
 36 35 l 25
 36 1 l 25
 35 0 l 25
 31 0 l 25
 30 1 l 25
 30 20 l 25
 10 0 l 25
 7 0 l 25
 6 1 l 25
 6 35 l 25
 7 36 l 25
 11 36 l 25
 12 35 l 29
EndSplineSet
Validated: 1
EndChar

StartChar: afii10075
Encoding: 233 1081 204
Width: 42
VWidth: 0
Flags: HMW
LayerCount: 2
Back
Fore
SplineSet
19 36 m 1
 18 37 l 25
 18 47 l 25
 19 48 l 25
 29 48 l 25
 30 47 l 1
 30 43 l 1
 29 42 l 1
 24 42 l 1
 24 37 l 5
 23 36 l 1
 19 36 l 1
EndSplineSet
Refer: 203 1080 N 1 0 0 1 0 0 2
Validated: 1
EndChar

StartChar: afii10076
Encoding: 234 1082 205
Width: 42
VWidth: 0
Flags: HMW
LayerCount: 2
Back
Fore
SplineSet
7 36 m 29
 11 36 l 25
 12 35 l 25
 12 18 l 25
 14 18 l 25
 32 36 l 25
 35 36 l 25
 36 35 l 25
 36 32 l 25
 22 18 l 25
 36 4 l 25
 36 1 l 25
 35 0 l 25
 32 0 l 25
 20 12 l 25
 12 12 l 25
 12 1 l 25
 11 0 l 25
 7 0 l 25
 6 1 l 25
 6 35 l 25
 7 36 l 29
EndSplineSet
Validated: 1
EndChar

StartChar: afii10077
Encoding: 235 1083 206
Width: 42
VWidth: 0
Flags: HMW
LayerCount: 2
Back
Fore
SplineSet
6 4 m 29
 12 10 l 25
 12 28 l 25
 20 36 l 25
 35 36 l 25
 36 35 l 25
 36 1 l 25
 35 0 l 25
 31 0 l 25
 30 1 l 25
 30 30 l 25
 22 30 l 25
 18 26 l 25
 18 8 l 25
 10 0 l 25
 7 0 l 25
 6 1 l 25
 6 4 l 29
EndSplineSet
Validated: 1
EndChar

StartChar: afii10078
Encoding: 236 1084 207
Width: 42
VWidth: 0
Flags: HMW
LayerCount: 2
Back
Fore
SplineSet
10 36 m 29
 21 25 l 25
 32 36 l 25
 35 36 l 25
 36 35 l 25
 36 1 l 25
 35 0 l 25
 31 0 l 25
 30 1 l 25
 30 26 l 25
 24 20 l 25
 24 13 l 25
 23 12 l 25
 19 12 l 25
 18 13 l 25
 18 20 l 25
 12 26 l 25
 12 1 l 25
 11 0 l 25
 7 0 l 25
 6 1 l 25
 6 35 l 25
 7 36 l 25
 10 36 l 29
EndSplineSet
Validated: 1
EndChar

StartChar: afii10079
Encoding: 237 1085 208
Width: 42
VWidth: 0
Flags: HMW
LayerCount: 2
Back
Fore
SplineSet
11 36 m 29
 12 35 l 25
 12 24 l 25
 30 24 l 25
 30 35 l 25
 31 36 l 25
 35 36 l 25
 36 35 l 25
 36 1 l 25
 35 0 l 25
 31 0 l 25
 30 1 l 25
 30 18 l 25
 12 18 l 25
 12 1 l 25
 11 0 l 25
 7 0 l 25
 6 1 l 25
 6 35 l 25
 7 36 l 25
 11 36 l 29
EndSplineSet
Validated: 1
EndChar

StartChar: afii10081
Encoding: 239 1087 210
Width: 42
VWidth: 0
Flags: HMW
LayerCount: 2
Back
Fore
SplineSet
6 1 m 29
 6 35 l 25
 7 36 l 25
 35 36 l 25
 36 35 l 25
 36 1 l 25
 35 0 l 25
 31 0 l 25
 30 1 l 25
 30 30 l 25
 12 30 l 25
 12 1 l 25
 11 0 l 25
 7 0 l 25
 6 1 l 29
EndSplineSet
Validated: 1
EndChar

StartChar: afii10084
Encoding: 242 1090 213
Width: 42
VWidth: 0
Flags: HMW
LayerCount: 2
Back
Fore
SplineSet
7 30 m 29
 6 31 l 25
 6 35 l 25
 7 36 l 25
 35 36 l 25
 36 35 l 25
 36 31 l 25
 35 30 l 25
 24 30 l 25
 24 1 l 25
 23 0 l 25
 19 0 l 25
 18 1 l 25
 18 30 l 25
 7 30 l 29
EndSplineSet
Validated: 1
EndChar

StartChar: afii10085
Encoding: 243 1091 214
Width: 42
VWidth: 0
Flags: HMW
LayerCount: 2
Back
Fore
SplineSet
11 36 m 29
 21 6 l 9
 31 36 l 25
 35 36 l 25
 36 35 l 1
 36 33 l 1
 24 -3 l 9
 24 -10 l 25
 16 -18 l 25
 7 -18 l 25
 6 -17 l 25
 6 -13 l 25
 7 -12 l 25
 14 -12 l 25
 18 -8 l 25
 18 -3 l 25
 6 33 l 25
 6 35 l 25
 7 36 l 25
 11 36 l 29
EndSplineSet
Validated: 1
EndChar

StartChar: afii10086
Encoding: 244 1092 215
Width: 42
VWidth: 0
Flags: HMW
LayerCount: 2
Back
Fore
SplineSet
24 30 m 29
 24 6 l 25
 26 6 l 25
 30 10 l 25
 30 26 l 25
 26 30 l 25
 24 30 l 29
16 30 m 25
 12 26 l 25
 12 10 l 25
 16 6 l 25
 18 6 l 25
 18 30 l 25
 16 30 l 25
6 28 m 25
 14 36 l 25
 18 36 l 25
 18 47 l 25
 19 48 l 25
 23 48 l 25
 24 47 l 25
 24 36 l 25
 28 36 l 25
 36 28 l 25
 36 8 l 25
 28 0 l 25
 24 0 l 25
 24 -11 l 25
 23 -12 l 25
 19 -12 l 25
 18 -11 l 25
 18 0 l 25
 14 0 l 25
 6 8 l 25
 6 28 l 25
EndSplineSet
Validated: 1
EndChar

StartChar: afii10088
Encoding: 246 1094 217
Width: 42
VWidth: 0
Flags: HMW
LayerCount: 2
Back
Fore
SplineSet
11 36 m 29
 12 35 l 25
 12 6 l 25
 30 6 l 25
 30 35 l 25
 31 36 l 25
 35 36 l 25
 36 35 l 25
 36 6 l 25
 41 6 l 25
 42 5 l 25
 42 -11 l 25
 41 -12 l 25
 37 -12 l 25
 36 -11 l 25
 36 0 l 25
 7 0 l 25
 6 1 l 25
 6 35 l 25
 7 36 l 25
 11 36 l 29
EndSplineSet
Validated: 1
EndChar

StartChar: afii10089
Encoding: 247 1095 218
Width: 42
VWidth: 0
Flags: HMW
LayerCount: 2
Back
Fore
SplineSet
11 36 m 29
 12 35 l 25
 12 22 l 25
 16 18 l 25
 30 18 l 25
 30 35 l 25
 31 36 l 25
 35 36 l 25
 36 35 l 25
 36 1 l 25
 35 0 l 25
 31 0 l 25
 30 1 l 25
 30 12 l 25
 14 12 l 25
 6 20 l 25
 6 35 l 25
 7 36 l 25
 11 36 l 29
EndSplineSet
Validated: 1
EndChar

StartChar: afii10090
Encoding: 248 1096 219
Width: 42
VWidth: 0
Flags: HMW
LayerCount: 2
Back
Fore
SplineSet
11 36 m 29
 12 35 l 25
 12 6 l 25
 18 6 l 25
 18 29 l 25
 19 30 l 25
 23 30 l 25
 24 29 l 25
 24 6 l 25
 30 6 l 25
 30 35 l 25
 31 36 l 25
 35 36 l 25
 36 35 l 25
 36 1 l 25
 35 0 l 25
 7 0 l 25
 6 1 l 25
 6 35 l 25
 7 36 l 25
 11 36 l 29
EndSplineSet
Validated: 1
EndChar

StartChar: afii10091
Encoding: 249 1097 220
Width: 42
VWidth: 0
Flags: HMW
LayerCount: 2
Back
Fore
SplineSet
6 35 m 29
 7 36 l 25
 11 36 l 25
 12 35 l 25
 12 6 l 25
 18 6 l 25
 18 29 l 25
 19 30 l 25
 23 30 l 25
 24 29 l 25
 24 6 l 25
 30 6 l 25
 30 35 l 25
 31 36 l 25
 35 36 l 25
 36 35 l 25
 36 6 l 25
 41 6 l 25
 42 5 l 25
 42 -11 l 25
 41 -12 l 25
 37 -12 l 25
 36 -11 l 25
 36 0 l 25
 7 0 l 25
 6 1 l 25
 6 35 l 29
EndSplineSet
Validated: 1
EndChar

StartChar: afii10092
Encoding: 250 1098 221
Width: 42
VWidth: 0
Flags: HMW
LayerCount: 2
Back
Fore
SplineSet
12 18 m 29
 12 6 l 25
 26 6 l 25
 30 10 l 25
 30 14 l 25
 26 18 l 25
 12 18 l 29
1 36 m 25
 17 36 l 25
 18 35 l 25
 18 26 l 25
 16 24 l 25
 28 24 l 25
 36 16 l 25
 36 8 l 25
 28 0 l 25
 7 0 l 25
 6 1 l 25
 6 22 l 25
 12 28 l 25
 12 30 l 25
 1 30 l 25
 0 31 l 25
 0 35 l 25
 1 36 l 25
EndSplineSet
Validated: 1
EndChar

StartChar: afii10093
Encoding: 251 1099 222
Width: 42
VWidth: 0
Flags: HMW
LayerCount: 2
Back
Fore
SplineSet
30 35 m 29
 31 36 l 25
 35 36 l 25
 36 35 l 25
 36 1 l 25
 35 0 l 25
 31 0 l 25
 30 1 l 25
 30 35 l 29
12 18 m 25
 12 6 l 25
 14 6 l 25
 18 10 l 25
 18 14 l 25
 14 18 l 25
 12 18 l 25
6 35 m 25
 7 36 l 25
 11 36 l 25
 12 35 l 25
 12 24 l 25
 16 24 l 25
 24 16 l 25
 24 8 l 25
 16 0 l 25
 7 0 l 25
 6 1 l 25
 6 35 l 25
EndSplineSet
Validated: 1
EndChar

StartChar: afii10094
Encoding: 252 1100 223
Width: 42
VWidth: 0
Flags: HMW
LayerCount: 2
Back
Fore
SplineSet
12 18 m 29
 12 6 l 25
 26 6 l 25
 30 10 l 25
 30 14 l 25
 26 18 l 25
 12 18 l 29
6 35 m 25
 7 36 l 25
 11 36 l 25
 12 35 l 25
 12 24 l 25
 28 24 l 25
 36 16 l 25
 36 8 l 25
 28 0 l 25
 7 0 l 25
 6 1 l 25
 6 35 l 25
EndSplineSet
Validated: 1
EndChar

StartChar: afii10095
Encoding: 253 1101 224
Width: 42
VWidth: 0
Flags: HMW
LayerCount: 2
Back
Fore
SplineSet
6 28 m 29
 14 36 l 25
 28 36 l 25
 36 28 l 25
 36 8 l 25
 28 0 l 25
 14 0 l 25
 6 8 l 25
 6 11 l 25
 7 12 l 25
 10 12 l 25
 16 6 l 25
 26 6 l 25
 30 10 l 25
 30 18 l 25
 19 18 l 25
 18 19 l 25
 18 23 l 25
 19 24 l 25
 30 24 l 25
 30 26 l 25
 26 30 l 25
 16 30 l 25
 10 24 l 25
 7 24 l 25
 6 25 l 25
 6 28 l 29
EndSplineSet
Validated: 1
EndChar

StartChar: afii10096
Encoding: 254 1102 225
Width: 42
VWidth: 0
Flags: HMW
LayerCount: 2
Back
Fore
SplineSet
28 30 m 29
 24 26 l 25
 24 10 l 25
 28 6 l 25
 32 6 l 25
 36 10 l 25
 36 26 l 25
 32 30 l 25
 28 30 l 29
6 35 m 25
 7 36 l 25
 11 36 l 25
 12 35 l 25
 12 24 l 25
 18 24 l 25
 18 28 l 25
 26 36 l 25
 34 36 l 25
 42 28 l 25
 42 8 l 25
 34 0 l 25
 26 0 l 25
 18 8 l 25
 18 18 l 25
 12 18 l 25
 12 1 l 25
 11 0 l 25
 7 0 l 25
 6 1 l 25
 6 35 l 25
EndSplineSet
Validated: 1
EndChar

StartChar: afii10097
Encoding: 255 1103 226
Width: 42
VWidth: 0
Flags: HMW
LayerCount: 2
Back
Fore
SplineSet
16 30 m 29
 12 26 l 25
 12 22 l 25
 16 18 l 25
 30 18 l 25
 30 30 l 25
 16 30 l 29
6 28 m 25
 14 36 l 25
 35 36 l 25
 36 35 l 25
 36 1 l 25
 35 0 l 25
 31 0 l 25
 30 1 l 25
 30 12 l 25
 22 12 l 25
 10 0 l 25
 7 0 l 25
 6 1 l 25
 6 4 l 25
 14 12 l 25
 6 20 l 25
 6 28 l 25
EndSplineSet
Validated: 1
EndChar

StartChar: .notdef
Encoding: 256 65533 227
Width: 42
VWidth: 78
Flags: HMW
LayerCount: 2
Fore
SplineSet
19 0 m 25
 18 -1 l 25
 18 -5 l 25
 19 -6 l 25
 23 -6 l 25
 24 -5 l 25
 24 -1 l 25
 23 0 l 25
 19 0 l 25
17 24 m 25
 18 25 l 25
 18 29 l 25
 19 30 l 25
 23 30 l 25
 24 29 l 1
 24 19 l 1
 18 13 l 1
 18 7 l 1
 19 6 l 1
 23 6 l 1
 24 7 l 1
 24 11 l 1
 30 17 l 5
 30 33 l 1
 27 36 l 25
 15 36 l 25
 12 33 l 25
 12 25 l 25
 13 24 l 25
 17 24 l 25
21 54 m 25
 36 39 l 25
 36 -3 l 25
 21 -18 l 25
 6 -3 l 1
 6 39 l 25
 21 54 l 25
EndSplineSet
Validated: 1
EndChar

